<?xml version="1.0" encoding="UTF-8"?>
<svg version="1.1" xmlns="http://www.w3.org/2000/svg" width="430" height="497">
<path d="M0 0 C141.9 0 283.8 0 430 0 C430 164.01 430 328.02 430 497 C288.1 497 146.2 497 0 497 C0 332.99 0 168.98 0 0 Z " fill="#F0F0F0" transform="translate(0,0)"/>
<path d="M0 0 C8.90011738 6.2438808 14.69838803 16.80244492 20.8359375 25.609375 C22.93652777 28.62139456 25.06663271 31.60838507 27.2265625 34.578125 C37.92021329 49.33569162 44.32211308 61.42034576 44.25878906 79.93505859 C44.26404602 81.83393829 44.26404602 81.83393829 44.26940918 83.7711792 C44.27847516 87.22118245 44.27501451 90.67106521 44.26865101 94.12107038 C44.26356747 97.73693624 44.26828837 101.35279217 44.27142334 104.96865845 C44.27505334 111.03267257 44.27028637 117.09663783 44.26074219 123.16064453 C44.24982999 130.174935 44.25340705 137.18910944 44.264395 144.20339715 C44.27346034 150.2315754 44.27475775 156.25971867 44.26951766 162.28790152 C44.26639758 165.88615106 44.26599023 169.48434596 44.27259064 173.08259201 C44.27942213 177.08556803 44.26996389 181.08834239 44.25878906 185.09130859 C44.26283752 186.28714569 44.26688599 187.48298279 44.27105713 188.71505737 C44.26541748 189.80008545 44.25977783 190.88511353 44.25396729 192.00302124 C44.25283621 193.42266709 44.25283621 193.42266709 44.25168228 194.87099266 C44 197.125 44 197.125 42 199.125 C39.27392578 199.32910156 39.27392578 199.32910156 35.8203125 199.265625 C34.55735352 199.24693359 33.29439453 199.22824219 31.99316406 199.20898438 C30.01654785 199.16741211 30.01654785 199.16741211 28 199.125 C26.75702148 199.11275391 25.51404297 199.10050781 24.23339844 199.08789062 C20.44614678 199.04637025 16.66140617 198.9641375 12.875 198.875 C11.60785156 198.86082031 10.34070313 198.84664062 9.03515625 198.83203125 C-7.93815572 198.39502528 -21.24481755 192.28888912 -33 180.125 C-39.05393596 173.18145895 -41.76648938 165.98699377 -44 157.125 C-44.17797119 156.50383301 -44.35594238 155.88266602 -44.53930664 155.24267578 C-45.05188869 152.88648252 -45.1131072 150.76972348 -45.09765625 148.359375 C-45.09443359 147.46992188 -45.09121094 146.58046875 -45.08789062 145.6640625 C-45.07951172 144.74367187 -45.07113281 143.82328125 -45.0625 142.875 C-45.05798828 141.93914062 -45.05347656 141.00328125 -45.04882812 140.0390625 C-45.03706918 137.73430959 -45.02063426 135.42968773 -45 133.125 C-46.16675483 133.13053076 -46.16675483 133.13053076 -47.35708046 133.13617325 C-66.28606131 133.22452164 -85.215001 133.29070833 -104.14414406 133.33224869 C-113.29815705 133.35287141 -122.45203239 133.38098644 -131.60595703 133.42675781 C-139.58479224 133.46663448 -147.56352776 133.49243493 -155.54245985 133.50135398 C-159.76704524 133.50656734 -163.99134543 133.51881444 -168.21583939 133.54792023 C-172.19344382 133.57510255 -176.170646 133.58343939 -180.1483345 133.57743073 C-181.60681343 133.57852971 -183.06530602 133.58646713 -184.52370453 133.6018219 C-186.5183586 133.62178969 -188.51322928 133.61453918 -190.50796509 133.60601807 C-191.6233346 133.60970524 -192.73870411 133.61339241 -193.8878727 133.61719131 C-197.77803686 133.00195138 -199.9349034 131.55683091 -203 129.125 C-205.56816836 125.27274746 -205.30278048 122.08631039 -205.30639648 117.61791992 C-205.31472 116.74929825 -205.32304352 115.88067657 -205.33161926 114.98573303 C-205.35575035 112.1089329 -205.36449561 109.23235942 -205.37109375 106.35546875 C-205.38005844 104.35630728 -205.38918025 102.35714651 -205.39845276 100.35798645 C-205.41495427 96.16401539 -205.42264486 91.97012426 -205.42553711 87.77612305 C-205.43091895 82.40575367 -205.46858602 77.03613719 -205.51428127 71.66598034 C-205.54404739 67.53523528 -205.55126059 63.4046715 -205.55226326 59.27382851 C-205.55646723 57.29428984 -205.5689086 55.31475071 -205.58978081 53.33531761 C-205.61668292 50.56307296 -205.61187319 47.79257287 -205.59936523 45.02026367 C-205.61419952 44.20498199 -205.62903381 43.38970032 -205.64431763 42.54971313 C-205.59319803 38.56436173 -205.24822615 35.90306757 -202.77503967 32.69404602 C-198.49560643 28.7322789 -194.94924902 27.87815811 -189.19767761 27.8465271 C-188.03806519 27.83536362 -186.87845276 27.82420013 -185.68370056 27.81269836 C-183.78908836 27.80945808 -183.78908836 27.80945808 -181.85620117 27.80615234 C-180.50572106 27.79684899 -179.15524667 27.78667971 -177.80477905 27.77571106 C-174.14611304 27.74844279 -170.48748548 27.73327111 -166.82874465 27.72028303 C-163.00234688 27.70463858 -159.17602744 27.67785255 -155.34968567 27.6522522 C-148.10731636 27.60548767 -140.86493228 27.56873232 -133.62248927 27.53557932 C-125.37580708 27.49734149 -117.1292036 27.44793568 -108.88258779 27.39759517 C-91.92178215 27.29430992 -74.96093094 27.20503846 -58 27.125 C-58.32307129 26.51382324 -58.64614258 25.90264648 -58.97900391 25.27294922 C-60.82618467 21.3868908 -60.53176744 17.32596277 -60 13.125 C-57.65025927 8.24476925 -54.80898418 5.57321013 -50 3.125 C-42.11897823 0.80186299 -33.58884367 0.53526741 -25.43725586 -0.17822266 C-3.73790299 -2.08149892 -3.73790299 -2.08149892 0 0 Z " fill="#303030" transform="translate(308,64.875)"/>
<path d="M0 0 C4.40661295 3.80811329 7.70766877 7.841769 10.94360352 12.66723633 C11.98015405 14.17588082 13.01795896 15.68366408 14.05688477 17.19067383 C14.58878418 17.96636719 15.12068359 18.74206055 15.66870117 19.54125977 C17.87864424 22.72373475 20.15859439 25.85238575 22.44360352 28.98120117 C34.35363292 45.29201401 41.49864859 57.26990792 41.43212891 77.91113281 C41.43227493 79.10209061 41.43242096 80.2930484 41.43257141 81.52009583 C41.4319963 84.76752907 41.42699922 88.01491859 41.41999745 91.26234317 C41.41372379 94.66293569 41.41315695 98.06352917 41.41197205 101.46412659 C41.40887053 107.89544133 41.4006731 114.32673898 41.39062256 120.75804621 C41.37942472 128.08333886 41.37394173 135.40863234 41.36892712 142.73393142 C41.35848945 157.79504257 41.34091294 172.85613773 41.31860352 187.91723633 C39.28279669 187.91936811 37.2469892 187.92087105 35.21118164 187.92211914 C33.51064636 187.9234787 33.51064636 187.9234787 31.77575684 187.92486572 C-5.35030291 187.84293434 -5.35030291 187.84293434 -19.68139648 175.91723633 C-20.32850586 175.38227539 -20.97561523 174.84731445 -21.64233398 174.29614258 C-30.57879625 166.15966929 -35.24458596 154.4301881 -35.85717773 142.49145508 C-35.86728117 139.62544857 -35.81842518 136.77961344 -35.68139648 133.91723633 C-32.69561014 136.87965057 -29.7518053 139.87628813 -26.83374023 142.90551758 C-25.42899725 144.34712355 -24.02404485 145.78852549 -22.61889648 147.22973633 C-21.55832031 148.34058594 -21.55832031 148.34058594 -20.47631836 149.47387695 C-19.44667969 150.52285156 -19.44667969 150.52285156 -18.39624023 151.59301758 C-17.77869873 152.23150635 -17.16115723 152.86999512 -16.52490234 153.52783203 C-14.53374604 155.31848742 -14.53374604 155.31848742 -10.68139648 154.91723633 C-11.19440577 150.8873164 -12.11957024 148.99983266 -15.06030273 146.21801758 C-15.73383789 145.56639648 -16.40737305 144.91477539 -17.10131836 144.2434082 C-17.80836914 143.57889648 -18.51541992 142.91438477 -19.24389648 142.22973633 C-20.6452858 140.89695538 -22.04265316 139.55992824 -23.43530273 138.21801758 C-24.36838257 137.33883667 -24.36838257 137.33883667 -25.3203125 136.44189453 C-26.68139648 134.91723633 -26.68139648 134.91723633 -26.68139648 132.91723633 C-27.34139648 132.91723633 -28.00139648 132.91723633 -28.68139648 132.91723633 C-29.88061523 131.69458008 -29.88061523 131.69458008 -31.36889648 129.85473633 C-35.08236876 125.46893012 -39.09777322 121.45300463 -43.18139648 117.41723633 C-61.06881638 99.6692895 -61.06881638 99.6692895 -62.18139648 92.85473633 C-61.43558026 88.47306599 -59.33861421 86.13252933 -55.80639648 83.54223633 C-52.0148502 82.42707566 -48.89117009 83.27839097 -45.45483398 85.09301758 C-41.84424793 87.46786784 -38.56991014 90.16324557 -35.24389648 92.91723633 C-33.81627471 94.08874046 -32.38787467 95.25929675 -30.95874023 96.42895508 C-30.24314941 97.01467285 -29.52755859 97.60039062 -28.7902832 98.20385742 C-25.08927723 101.2107641 -21.33619415 104.15043312 -17.57275391 107.07861328 C-13.21889739 110.47040287 -8.96976092 113.97543794 -4.76733398 117.55395508 C-2.5386633 119.2819566 -2.5386633 119.2819566 1.31860352 118.91723633 C1.43495457 116.61942079 1.43495457 116.61942079 0.31860352 113.91723633 C-1.00593519 113.16456061 -2.34623373 112.43941629 -3.69506836 111.73120117 C-6.73372395 109.50919063 -7.57528798 108.40099895 -8.39257812 104.67486572 C-8.60875377 100.43459512 -8.58173386 96.26001011 -8.46264648 92.01879883 C-8.44771252 90.45798651 -8.43633094 88.89713652 -8.42834473 87.33627319 C-8.39789936 83.24175202 -8.31940929 79.14952652 -8.23071289 75.0559082 C-8.14865281 70.87328141 -8.1122907 66.69028102 -8.07202148 62.50708008 C-7.98640122 54.3094157 -7.84999388 46.11361211 -7.68139648 37.91723633 C-6.55153534 38.84985456 -5.42668394 39.78854407 -4.30395508 40.72973633 C-3.67701752 41.25180664 -3.05007996 41.77387695 -2.40414429 42.31176758 C0.00234166 44.55442781 1.2982469 46.95692173 2.69360352 49.91723633 C3.17571289 50.90723633 3.65782227 51.89723633 4.15454102 52.91723633 C6.28263198 58.40171236 6.43962202 63.66261095 6.41625977 69.50317383 C6.41484482 70.20495758 6.41342987 70.90674133 6.41197205 71.62979126 C6.40641641 73.85065137 6.39387244 76.07140717 6.38110352 78.29223633 C6.37608277 79.80655778 6.37152087 81.32088083 6.36743164 82.83520508 C6.35646158 86.52924885 6.339228 90.22323239 6.31860352 93.91723633 C8.39414 94.47071272 10.16226315 94.91723633 12.31860352 94.91723633 C12.24889813 90.29434457 12.16055315 85.67228744 12.05615234 81.05004883 C12.02323973 79.48308711 11.99510735 77.9160164 11.97216797 76.34887695 C11.73876378 60.81508338 10.20646505 46.91866948 -1.05639648 35.16723633 C-8.31424534 28.39003972 -14.54712294 23.90229785 -24.77905273 23.42504883 C-25.91020508 23.35930664 -27.04135742 23.29356445 -28.20678711 23.22583008 C-30.56836489 23.10325232 -32.93037219 22.98869147 -35.29272461 22.88208008 C-36.42258789 22.81375977 -37.55245117 22.74543945 -38.71655273 22.67504883 C-39.74143799 22.62493652 -40.76632324 22.57482422 -41.82226562 22.52319336 C-45.34668478 21.77623679 -47.09997489 20.38834323 -49.68139648 17.91723633 C-50.89629191 14.91225164 -51.08207918 12.12842194 -50.68139648 8.91723633 C-48.18858246 5.5934843 -46.61335383 4.22788878 -42.68139648 2.91723633 C-40.61660411 2.64367327 -38.54646305 2.40970874 -36.47436523 2.19848633 C-35.24782227 2.07086914 -34.0212793 1.94325195 -32.75756836 1.81176758 C-31.47430664 1.68157227 -30.19104492 1.55137695 -28.86889648 1.41723633 C-26.34138383 1.15846413 -23.81403332 0.89810224 -21.28686523 0.63598633 C-20.1643335 0.5219043 -19.04180176 0.40782227 -17.88525391 0.2902832 C-2.35693013 -1.51778498 -2.35693013 -1.51778498 0 0 Z " fill="#EFEFEF" transform="translate(304.681396484375,70.082763671875)"/>
<path d="M0 0 C41.58 0 83.16 0 126 0 C126 11.22 126 22.44 126 34 C125.01 34.66 124.02 35.32 123 36 C122.505 36.99 122.505 36.99 122 38 C123.98 38.495 123.98 38.495 126 39 C126 42.63 126 46.26 126 50 C124.35 49.34 122.7 48.68 121 48 C116.16875667 47.465509 111.59998697 47.35319676 107.0625 49.1875 C102.89380422 52.85089933 100.16829999 56.04772017 99.6875 61.625 C99.98184816 72.57475137 108.65225608 79.01165659 116 86 C116.78375 86.73734375 117.5675 87.4746875 118.375 88.234375 C120 90 120 90 120 92 C111.62121352 91.38962483 103.71264493 89.27466144 95.625 87.125 C94.26577303 86.76896562 92.90639868 86.41349342 91.546875 86.05859375 C84.75954123 84.28125717 77.98767198 82.46173303 71.24755859 80.51123047 C68.73409909 79.85213662 68.73409909 79.85213662 65 80 C65 81.32 65 82.64 65 84 C73.62890392 86.5146362 82.26313439 88.88779073 91 91 C91 91.33 91 91.66 91 92 C60.64 92 30.28 92 -1 92 C-1 67 -1 67 1 63 C0.67 62.67 0.34 62.34 0 62 C-0.07258946 59.81360547 -0.08373783 57.62499611 -0.0625 55.4375 C-0.05347656 54.23996094 -0.04445312 53.04242188 -0.03515625 51.80859375 C-0.02355469 50.88175781 -0.01195312 49.95492187 0 49 C1.258125 48.9175 2.51625 48.835 3.8125 48.75 C7.33811212 48.33442857 7.33811212 48.33442857 10 45.9375 C10.33 45.298125 10.66 44.65875 11 44 C9.68 43.67 8.36 43.34 7 43 C9.3065686 36.88239697 12.58276998 31.35526212 15.8125 25.6875 C16.42931641 24.56537109 17.04613281 23.44324219 17.68164062 22.28710938 C18.28814453 21.22685547 18.89464844 20.16660156 19.51953125 19.07421875 C20.06714111 18.10057373 20.61475098 17.12692871 21.17895508 16.1237793 C23 14 23 14 25.57275391 13.49316406 C28 14 28 14 30.31640625 17.03515625 C31.08403677 18.36686882 31.83208343 19.71001835 32.5625 21.0625 C33.12227539 22.04766602 33.12227539 22.04766602 33.69335938 23.05273438 C34.4392124 24.36932711 35.17709466 25.69046878 35.90673828 27.01611328 C37.56843439 30.03150913 39.28725044 33.01336867 41 36 C41.99 35.67 42.98 35.34 44 35 C44.25047467 31.115729 43.75177474 28.97321068 41.69921875 25.6796875 C41.21646484 24.89722656 40.73371094 24.11476563 40.23632812 23.30859375 C39.72521484 22.50550781 39.21410156 21.70242187 38.6875 20.875 C38.18798828 20.06417969 37.68847656 19.25335938 37.17382812 18.41796875 C34.1009781 13.28313582 34.1009781 13.28313582 30 9 C24.42651667 8.27768988 24.42651667 8.27768988 19.58203125 10.67138672 C16.78462597 13.19423577 15.3323052 15.4455475 13.5546875 18.75390625 C12.65169922 20.40616211 12.65169922 20.40616211 11.73046875 22.09179688 C10.81201172 23.80979492 10.81201172 23.80979492 9.875 25.5625 C8.64776754 27.8370899 7.41618307 30.10933857 6.1796875 32.37890625 C5.37120361 33.88819702 5.37120361 33.88819702 4.54638672 35.42797852 C3 38 3 38 0 41 C0 27.47 0 13.94 0 0 Z " fill="#303030" transform="translate(137,100)"/>
<path d="M0 0 C1.16802658 -0.00274933 2.33605316 -0.00549866 3.53947449 -0.0083313 C5.44811279 0.00245453 5.44811279 0.00245453 7.39530945 0.01345825 C8.75563549 0.01402271 10.11596215 0.01370514 11.47628784 0.01257324 C15.16187823 0.01200007 18.8473381 0.02374866 22.53289819 0.03772116 C26.38727164 0.05023437 30.24164818 0.05139948 34.09603882 0.05377197 C41.39159038 0.059985 48.68708192 0.07639343 55.98260707 0.09647095 C64.28969074 0.11883546 72.59677729 0.12982477 80.90388358 0.13986182 C97.98919501 0.16075981 115.07444803 0.19593235 132.15971375 0.24050903 C132.15971375 0.57050903 132.15971375 0.90050903 132.15971375 1.24050903 C131.59556857 1.24197559 131.0314234 1.24344215 130.45018291 1.24495316 C116.72946956 1.28198905 103.00900696 1.34121407 89.28849316 1.42441177 C82.65335263 1.46397213 76.01834653 1.49611864 69.38310242 1.51150513 C62.9833459 1.52661526 56.58395874 1.56096037 50.18436623 1.60881805 C47.73909523 1.62369019 45.29377151 1.63155336 42.84845543 1.63239288 C39.43121528 1.63474671 36.01500913 1.6616995 32.59794617 1.6946106 C31.58015076 1.68958023 30.56235535 1.68454987 29.51371765 1.67936707 C28.58403671 1.69327988 27.65435577 1.70719269 26.69650269 1.7215271 C25.48388402 1.72705786 25.48388402 1.72705786 24.246768 1.73270035 C21.56479827 2.15112988 21.56479827 2.15112988 19.15971375 6.24050903 C60.40971375 6.24050903 101.65971375 6.24050903 144.15971375 6.24050903 C144.15971375 6.57050903 144.15971375 6.90050903 144.15971375 7.24050903 C102.57971375 7.24050903 60.99971375 7.24050903 18.15971375 7.24050903 C18.48971375 20.11050903 18.81971375 32.98050903 19.15971375 46.24050903 C23.54829167 38.61599236 23.54829167 38.61599236 27.92411804 30.98416138 C35.77659418 17.43206882 35.77659418 17.43206882 40.15971375 15.24050903 C43.23426458 14.83056892 45.20023597 14.61071433 48.15971375 15.24050903 C50.84056042 17.57911996 52.24487456 19.30954057 54.15971375 22.24050903 C54.53869812 22.80914673 54.9176825 23.37778442 55.30815125 23.96365356 C56.59659178 25.91582103 57.85195625 27.8855424 59.09721375 29.86550903 C59.51156677 30.51076538 59.9259198 31.15602173 60.35282898 31.8208313 C62.16196307 34.81243114 63.20781001 36.66182704 62.91362 40.20144653 C62.66483093 40.87433716 62.41604187 41.54722778 62.15971375 42.24050903 C61.49971375 42.24050903 60.83971375 42.24050903 60.15971375 42.24050903 C59.82971375 43.23050903 59.49971375 44.22050903 59.15971375 45.24050903 C58.87249451 44.72141968 58.58527527 44.20233032 58.28935242 43.66751099 C56.97621635 41.29550517 55.66172696 38.92425193 54.34721375 36.55300903 C53.89539734 35.73638794 53.44358093 34.91976685 52.97807312 34.07839966 C52.1004227 32.49606643 51.21927115 30.91566899 50.33427429 29.33743286 C49.38008232 27.63392947 48.4396783 25.92270831 47.50346375 24.20925903 C46.27618734 21.96898051 46.27618734 21.96898051 43.47221375 21.42800903 C42.32752625 21.33519653 42.32752625 21.33519653 41.15971375 21.24050903 C40.89690613 21.94715698 40.63409851 22.65380493 40.36332703 23.38186646 C39.08620601 26.41509363 37.57032607 29.14246808 35.90190125 31.97879028 C35.27670593 33.0454895 34.65151062 34.11218872 34.00737 35.21121216 C33.35639343 36.31400513 32.70541687 37.4167981 32.03471375 38.55300903 C31.37600281 39.67513794 30.71729187 40.79726685 30.03862 41.95339966 C28.41539004 44.7175956 26.7889922 47.47987536 25.15971375 50.24050903 C26.80971375 50.24050903 28.45971375 50.24050903 30.15971375 50.24050903 C29.84721375 52.11550903 29.84721375 52.11550903 29.15971375 54.24050903 C26.07082852 56.29976585 25.45035448 56.47954643 21.97221375 56.36550903 C20.71408875 56.32425903 19.45596375 56.28300903 18.15971375 56.24050903 C18.15971375 60.53050903 18.15971375 64.82050903 18.15971375 69.24050903 C19.14971375 69.73550903 19.14971375 69.73550903 20.15971375 70.24050903 C19.49971375 71.56050903 18.83971375 72.88050903 18.15971375 74.24050903 C17.82971375 82.49050903 17.49971375 90.74050903 17.15971375 99.24050903 C60.22471375 98.74550903 60.22471375 98.74550903 104.15971375 98.24050903 C93.76471375 95.27050903 93.76471375 95.27050903 83.15971375 92.24050903 C82.82971375 90.59050903 82.49971375 88.94050903 82.15971375 87.24050903 C86.19718762 86.14992172 88.86993726 86.4098917 92.88627625 87.49832153 C93.99213074 87.79206665 95.09798523 88.08581177 96.23735046 88.38845825 C97.40798035 88.71088501 98.57861023 89.03331177 99.78471375 89.36550903 C100.98499207 89.68664673 102.18527039 90.00778442 103.42192078 90.33865356 C105.85327168 90.98971711 108.28346358 91.64512504 110.71244812 92.30496216 C114.66999198 93.37899248 118.63299848 94.43087379 122.59867859 95.47439575 C124.17784008 95.88999788 125.75633717 96.30813606 127.33403015 96.72927856 C130.9254421 97.68331167 134.50457874 98.56681748 138.15971375 99.24050903 C138.81971375 96.93050903 139.47971375 94.62050903 140.15971375 92.24050903 C146.15930604 97.19669397 151.96826824 102.43277522 157.15971375 108.24050903 C157.15971375 108.90050903 157.15971375 109.56050903 157.15971375 110.24050903 C157.81971375 110.24050903 158.47971375 110.24050903 159.15971375 110.24050903 C160.53471375 111.63894653 160.53471375 111.63894653 162.15971375 113.61550903 C165.88818367 118.06281532 170.02768668 121.9423844 174.31596375 125.84597778 C176.15971375 128.24050903 176.15971375 128.24050903 175.94096375 131.04129028 C175.68315125 131.76703247 175.42533875 132.49277466 175.15971375 133.24050903 C171.06959608 132.72603717 169.14516904 131.71866443 166.27690125 128.78347778 C165.2385614 127.73256958 165.2385614 127.73256958 164.179245 126.66043091 C163.47154968 125.92373169 162.76385437 125.18703247 162.03471375 124.42800903 C161.31928406 123.70291138 160.60385437 122.97781372 159.866745 122.23074341 C156.73206673 119.02868421 153.79180682 115.87489589 151.15971375 112.24050903 C150.77884092 119.4065607 151.52915068 125.52527622 153.4214325 132.43972778 C154.69977199 137.28930143 155.98152734 142.38233944 154.15971375 147.24050903 C148.10578768 142.70006448 147.00289054 136.31505527 145.15971375 129.24050903 C144.98029236 128.61571655 144.80087097 127.99092407 144.61601257 127.34719849 C144.10675669 124.99601123 144.04664198 122.87970459 144.0620575 120.47488403 C144.06528015 119.58543091 144.06850281 118.69597778 144.07182312 117.77957153 C144.08020203 116.85918091 144.08858093 115.93879028 144.09721375 114.99050903 C144.10172546 114.05464966 144.10623718 113.11879028 144.11088562 112.15457153 C144.12264456 109.84981862 144.13907949 107.54519677 144.15971375 105.24050903 C142.99295892 105.24603979 142.99295892 105.24603979 141.80263329 105.25168228 C122.87365243 105.34003068 103.94471275 105.40621736 85.01556969 105.44775772 C75.86155669 105.46838044 66.70768135 105.49649548 57.55375671 105.54226685 C49.5749215 105.58214352 41.59618599 105.60794396 33.6172539 105.61686301 C29.39266851 105.62207637 25.16836832 105.63432348 20.94387436 105.66342926 C16.96626992 105.69061159 12.98906774 105.69894842 9.01137924 105.69293976 C7.55290032 105.69403875 6.09440772 105.70197617 4.63600922 105.71733093 C2.64135515 105.73729873 0.64648447 105.73004821 -1.34825134 105.7215271 C-2.46362085 105.72521427 -3.57899036 105.72890144 -4.72815895 105.73270035 C-8.61832312 105.11746041 -10.77518965 103.67233994 -13.84028625 101.24050903 C-16.40845461 97.3882565 -16.14306674 94.20181943 -16.14668274 89.73342896 C-16.15500626 88.86480728 -16.16332977 87.99618561 -16.17190552 87.10124207 C-16.19603661 84.22444193 -16.20478186 81.34786846 -16.21138 78.47097778 C-16.22034469 76.47181632 -16.22946651 74.47265555 -16.23873901 72.47349548 C-16.25524052 68.27952442 -16.26293112 64.08563329 -16.26582336 59.89163208 C-16.27120521 54.52126271 -16.30887227 49.15164622 -16.35456753 43.78148937 C-16.38433364 39.65074431 -16.39154684 35.52018053 -16.39254951 31.38933754 C-16.39675349 29.40979887 -16.40919486 27.43025974 -16.43006706 25.45082664 C-16.45696918 22.67858199 -16.45215944 19.9080819 -16.43965149 17.13577271 C-16.45448578 16.32049103 -16.46932007 15.50520935 -16.48460388 14.66522217 C-16.43348428 10.67987077 -16.0885124 8.01857661 -13.61532593 4.80955505 C-9.31521174 0.82864215 -5.77970842 -0.01051812 0 0 Z " fill="#2E2E2E" transform="translate(118.84028625488281,92.75949096679688)"/>
<path d="M0 0 C41.58 0 83.16 0 126 0 C126 11.22 126 22.44 126 34 C109.375 34.3125 109.375 34.3125 104.16162109 34.38793945 C102.78219961 34.42025606 101.4028024 34.45363354 100.0234375 34.48828125 C99.32001221 34.49452515 98.61658691 34.50076904 97.8918457 34.50720215 C93.18528781 34.64330135 90.09693001 35.76087619 86 38 C85.01 38 84.02 38 83 38 C82.70754395 37.45996338 82.41508789 36.91992676 82.11376953 36.36352539 C80.78992607 33.92667669 79.45759307 31.49457413 78.125 29.0625 C77.66480469 28.21236328 77.20460938 27.36222656 76.73046875 26.48632812 C76.28574219 25.67744141 75.84101563 24.86855469 75.3828125 24.03515625 C74.97434082 23.2862915 74.56586914 22.53742676 74.14501953 21.76586914 C73.11097898 19.84417254 73.11097898 19.84417254 71 19 C65.90226404 18.32590157 65.90226404 18.32590157 61.53173828 20.26977539 C59.9174319 22.09326747 58.73911907 23.90515797 57.51953125 26.01171875 C57.07802734 26.76904297 56.63652344 27.52636719 56.18164062 28.30664062 C55.72982422 29.09232422 55.27800781 29.87800781 54.8125 30.6875 C54.11737305 31.88342773 54.11737305 31.88342773 53.40820312 33.10351562 C52.26794823 35.06663487 51.13206227 37.03214871 50 39 C45.14434581 33.5023723 41.9402592 26.96022308 38.421875 20.57226562 C37.65617187 19.20424805 37.65617187 19.20424805 36.875 17.80859375 C36.19050781 16.56807251 36.19050781 16.56807251 35.4921875 15.30249023 C33.87123579 12.80131295 32.28647745 10.91503292 30 9 C24.41807284 8.22859279 24.41807284 8.22859279 19.58422852 10.67358398 C16.78332265 13.19506079 15.33305404 15.44415381 13.5546875 18.75390625 C12.65169922 20.40616211 12.65169922 20.40616211 11.73046875 22.09179688 C10.81201172 23.80979492 10.81201172 23.80979492 9.875 25.5625 C8.64776754 27.8370899 7.41618307 30.10933857 6.1796875 32.37890625 C5.37120361 33.88819702 5.37120361 33.88819702 4.54638672 35.42797852 C3 38 3 38 0 41 C0 27.47 0 13.94 0 0 Z " fill="#EFEFEF" transform="translate(137,100)"/>
<path d="M0 0 C1.05692047 0.00212242 1.05692047 0.00212242 2.13519287 0.00428772 C4.37663084 0.00986692 6.61796743 0.02241552 8.859375 0.03515625 C10.38281105 0.04017394 11.90624868 0.04473638 13.4296875 0.04882812 C17.15628272 0.05982951 20.88281896 0.07707979 24.609375 0.09765625 C24.609375 3.39765625 24.609375 6.69765625 24.609375 10.09765625 C23.8978125 9.77410156 23.18625 9.45054687 22.453125 9.1171875 C17.05882686 7.1832427 10.99268149 7.13419192 5.671875 9.28515625 C1.50317922 12.94855558 -1.22232501 16.14537642 -1.703125 21.72265625 C-1.40877684 32.67240762 7.26163108 39.10931284 14.609375 46.09765625 C15.785 47.20367187 15.785 47.20367187 16.984375 48.33203125 C18.609375 50.09765625 18.609375 50.09765625 18.609375 52.09765625 C10.23058852 51.48728108 2.32201993 49.37231769 -5.765625 47.22265625 C-7.12485197 46.86662187 -8.48422632 46.51114967 -9.84375 46.15625 C-16.63108377 44.37891342 -23.40295302 42.55938928 -30.14306641 40.60888672 C-32.65652591 39.94979287 -32.65652591 39.94979287 -36.390625 40.09765625 C-36.390625 41.41765625 -36.390625 42.73765625 -36.390625 44.09765625 C-27.76172108 46.61229245 -19.12749061 48.98544698 -10.390625 51.09765625 C-10.390625 51.42765625 -10.390625 51.75765625 -10.390625 52.09765625 C-40.750625 52.09765625 -71.110625 52.09765625 -102.390625 52.09765625 C-102.390625 44.17765625 -102.390625 36.25765625 -102.390625 28.09765625 C-96.87304753 28.78735343 -91.89122551 29.60594106 -86.59375 31.05859375 C-85.87886414 31.24982819 -85.16397827 31.44106262 -84.4274292 31.63809204 C-82.16378742 32.24463504 -79.90216776 32.85833829 -77.640625 33.47265625 C-71.89255897 35.0215512 -66.14248146 36.56290095 -60.390625 38.09765625 C-59.21048828 38.41379883 -58.03035156 38.72994141 -56.81445312 39.05566406 C-55.23567383 39.46703613 -55.23567383 39.46703613 -53.625 39.88671875 C-52.72491211 40.12342285 -51.82482422 40.36012695 -50.89746094 40.60400391 C-48.33089603 41.10941823 -45.99945252 41.18852552 -43.390625 41.09765625 C-43.42185443 39.13009173 -43.42185443 39.13009173 -44.390625 37.09765625 C-47.38678446 35.79309065 -47.38678446 35.79309065 -50.390625 35.09765625 C-49.13569547 31.33286766 -47.55964981 30.40384958 -44.453125 27.97265625 C-40.6587157 24.94692083 -36.97126038 21.87367899 -33.390625 18.59765625 C-12.88024581 -0.05111209 -12.88024581 -0.05111209 0 0 Z " fill="#ECECEC" transform="translate(238.390625,139.90234375)"/>
<path d="M0 0 C8.90011738 6.2438808 14.69838803 16.80244492 20.8359375 25.609375 C22.93652777 28.62139456 25.06663271 31.60838507 27.2265625 34.578125 C37.92021329 49.33569162 44.32211308 61.42034576 44.25878906 79.93505859 C44.2622937 81.20097839 44.26579834 82.46689819 44.26940918 83.7711792 C44.27847516 87.22118245 44.27501451 90.67106521 44.26865101 94.12107038 C44.26356747 97.73693624 44.26828837 101.35279217 44.27142334 104.96865845 C44.27505334 111.03267257 44.27028637 117.09663783 44.26074219 123.16064453 C44.24982999 130.174935 44.25340705 137.18910944 44.264395 144.20339715 C44.27346034 150.2315754 44.27475775 156.25971867 44.26951766 162.28790152 C44.26639758 165.88615106 44.26599023 169.48434596 44.27259064 173.08259201 C44.27942213 177.08556803 44.26996389 181.08834239 44.25878906 185.09130859 C44.26283752 186.28714569 44.26688599 187.48298279 44.27105713 188.71505737 C44.26541748 189.80008545 44.25977783 190.88511353 44.25396729 192.00302124 C44.25321323 192.94945181 44.25245918 193.89588238 44.25168228 194.87099266 C44 197.125 44 197.125 42 199.125 C39.27392578 199.32910156 39.27392578 199.32910156 35.8203125 199.265625 C34.55735352 199.24693359 33.29439453 199.22824219 31.99316406 199.20898438 C30.01654785 199.16741211 30.01654785 199.16741211 28 199.125 C26.75702148 199.11275391 25.51404297 199.10050781 24.23339844 199.08789062 C20.44614678 199.04637025 16.66140617 198.9641375 12.875 198.875 C11.60785156 198.86082031 10.34070313 198.84664062 9.03515625 198.83203125 C-6.99272846 198.41936687 -19.05014217 193.0321734 -30.8359375 182.40625 C-33.01937923 180.10457135 -34.55881316 177.94634623 -36 175.125 C-35.72631508 172.11446587 -34.35027256 169.79776173 -33 167.125 C-32.67128906 167.681875 -32.34257812 168.23875 -32.00390625 168.8125 C-24.89195704 180.22245646 -15.35541925 187.46754148 -2.25123596 190.67501831 C1.51140737 191.42710322 5.26695684 191.59588269 9.09375 191.7578125 C10.34194519 191.82015579 10.34194519 191.82015579 11.61535645 191.88375854 C14.24327301 192.01331287 16.871549 192.13184028 19.5 192.25 C21.29430627 192.33650772 23.08857774 192.42374041 24.8828125 192.51171875 C29.25485097 192.72452484 33.62724666 192.92745115 38 193.125 C37.91593322 177.39079624 37.82073909 161.65670113 37.71247292 145.92264748 C37.66245409 138.61625871 37.61601041 131.30988056 37.578125 124.00341797 C37.54507626 117.63152071 37.50517498 111.25970854 37.45720994 104.88790548 C37.43207228 101.51734218 37.41025427 98.1468344 37.39665604 94.77620316 C37.37971037 91.0038366 37.35065469 87.23173923 37.31884766 83.45947266 C37.31668747 82.35463531 37.31452728 81.24979797 37.31230164 80.11148071 C37.11142246 61.39247683 29.65528033 49.56872335 18.6796875 35.03515625 C14.67277174 29.72730747 10.85696398 24.2950758 7.08349609 18.81958008 C2.01993409 10.92947213 2.01993409 10.92947213 -5 5.125 C-6.91032706 5.17824376 -8.81875163 5.30733365 -10.72265625 5.47265625 C-11.89328613 5.57336426 -13.06391602 5.67407227 -14.27001953 5.77783203 C-20.32947378 6.34181579 -26.38495776 6.92830025 -32.4375 7.5625 C-34.27731445 7.74522461 -34.27731445 7.74522461 -36.15429688 7.93164062 C-37.33958984 8.05603516 -38.52488281 8.18042969 -39.74609375 8.30859375 C-40.80497803 8.41743896 -41.8638623 8.52628418 -42.95483398 8.63842773 C-46.13275937 9.14621297 -48.98000423 10.02658851 -52 11.125 C-52.19658808 12.54043415 -52.38187546 13.95744031 -52.5625 15.375 C-52.66691406 16.16390625 -52.77132812 16.9528125 -52.87890625 17.765625 C-53.00027349 20.13032874 -52.69633257 21.8761037 -52 24.125 C-53.98 25.115 -55.96 26.105 -58 27.125 C-60.63433646 22.55179191 -60.65323951 18.28559216 -60 13.125 C-57.65025927 8.24476925 -54.80898418 5.57321013 -50 3.125 C-42.11897823 0.80186299 -33.58884367 0.53526741 -25.43725586 -0.17822266 C-3.73790299 -2.08149892 -3.73790299 -2.08149892 0 0 Z " fill="#333333" transform="translate(308,64.875)"/>
<path d="M0 0 C5.94 0 11.88 0 18 0 C18 30.36 18 60.72 18 92 C12.06 92 6.12 92 0 92 C-3.35276816 87.52964246 -3.42956355 85.07659758 -3.38818359 79.79077148 C-3.39344055 78.96595276 -3.39869751 78.14113403 -3.40411377 77.2913208 C-3.4173068 74.5677186 -3.40857906 71.84470179 -3.3984375 69.12109375 C-3.40045824 67.22827543 -3.40336968 65.33545787 -3.40713501 63.44264221 C-3.41155725 59.47739239 -3.40512977 55.51234539 -3.39111328 51.54711914 C-3.37400979 46.46025445 -3.38387058 41.3738642 -3.40183067 36.28701687 C-3.41266123 32.37942415 -3.40922572 28.4719443 -3.4014473 24.56434822 C-3.39944388 22.68842577 -3.40190952 20.81249312 -3.40888596 18.93658257 C-3.41648976 16.31738938 -3.40491212 13.69896945 -3.38818359 11.07983398 C-3.39425629 10.30209122 -3.40032898 9.52434845 -3.40658569 8.72303772 C-3.35371598 4.26354063 -3.30526019 3.30526019 0 0 Z " fill="#EFEFEF" transform="translate(112,100)"/>
<path d="M0 0 C1.16802658 -0.00274933 2.33605316 -0.00549866 3.53947449 -0.0083313 C5.44811279 0.00245453 5.44811279 0.00245453 7.39530945 0.01345825 C8.75563549 0.01402271 10.11596215 0.01370514 11.47628784 0.01257324 C15.16187823 0.01200007 18.8473381 0.02374866 22.53289819 0.03772116 C26.38727164 0.05023437 30.24164818 0.05139948 34.09603882 0.05377197 C41.39159038 0.059985 48.68708192 0.07639343 55.98260707 0.09647095 C64.28969074 0.11883546 72.59677729 0.12982477 80.90388358 0.13986182 C97.98919501 0.16075981 115.07444803 0.19593235 132.15971375 0.24050903 C132.15971375 0.57050903 132.15971375 0.90050903 132.15971375 1.24050903 C131.59556857 1.24197559 131.0314234 1.24344215 130.45018291 1.24495316 C116.72946956 1.28198905 103.00900696 1.34121407 89.28849316 1.42441177 C82.65335263 1.46397213 76.01834653 1.49611864 69.38310242 1.51150513 C62.9833459 1.52661526 56.58395874 1.56096037 50.18436623 1.60881805 C47.73909523 1.62369019 45.29377151 1.63155336 42.84845543 1.63239288 C39.43121528 1.63474671 36.01500913 1.6616995 32.59794617 1.6946106 C31.58015076 1.68958023 30.56235535 1.68454987 29.51371765 1.67936707 C28.58403671 1.69327988 27.65435577 1.70719269 26.69650269 1.7215271 C25.48388402 1.72705786 25.48388402 1.72705786 24.246768 1.73270035 C21.56479827 2.15112988 21.56479827 2.15112988 19.15971375 6.24050903 C60.40971375 6.24050903 101.65971375 6.24050903 144.15971375 6.24050903 C144.15971375 6.57050903 144.15971375 6.90050903 144.15971375 7.24050903 C102.57971375 7.24050903 60.99971375 7.24050903 18.15971375 7.24050903 C18.48971375 20.11050903 18.81971375 32.98050903 19.15971375 46.24050903 C23.54829167 38.61599236 23.54829167 38.61599236 27.92411804 30.98416138 C35.77659418 17.43206882 35.77659418 17.43206882 40.15971375 15.24050903 C43.23426458 14.83056892 45.20023597 14.61071433 48.15971375 15.24050903 C50.84056042 17.57911996 52.24487456 19.30954057 54.15971375 22.24050903 C54.53869812 22.80914673 54.9176825 23.37778442 55.30815125 23.96365356 C56.59659178 25.91582103 57.85195625 27.8855424 59.09721375 29.86550903 C59.51156677 30.51076538 59.9259198 31.15602173 60.35282898 31.8208313 C62.16196307 34.81243114 63.20781001 36.66182704 62.91362 40.20144653 C62.66483093 40.87433716 62.41604187 41.54722778 62.15971375 42.24050903 C61.49971375 42.24050903 60.83971375 42.24050903 60.15971375 42.24050903 C59.82971375 43.23050903 59.49971375 44.22050903 59.15971375 45.24050903 C58.87249451 44.72141968 58.58527527 44.20233032 58.28935242 43.66751099 C56.97621635 41.29550517 55.66172696 38.92425193 54.34721375 36.55300903 C53.89539734 35.73638794 53.44358093 34.91976685 52.97807312 34.07839966 C52.1004227 32.49606643 51.21927115 30.91566899 50.33427429 29.33743286 C49.38008232 27.63392947 48.4396783 25.92270831 47.50346375 24.20925903 C46.27618734 21.96898051 46.27618734 21.96898051 43.47221375 21.42800903 C42.32752625 21.33519653 42.32752625 21.33519653 41.15971375 21.24050903 C40.89690613 21.94715698 40.63409851 22.65380493 40.36332703 23.38186646 C39.08620601 26.41509363 37.57032607 29.14246808 35.90190125 31.97879028 C35.27670593 33.0454895 34.65151062 34.11218872 34.00737 35.21121216 C33.35639343 36.31400513 32.70541687 37.4167981 32.03471375 38.55300903 C31.37600281 39.67513794 30.71729187 40.79726685 30.03862 41.95339966 C28.41539004 44.7175956 26.7889922 47.47987536 25.15971375 50.24050903 C26.80971375 50.24050903 28.45971375 50.24050903 30.15971375 50.24050903 C29.84721375 52.11550903 29.84721375 52.11550903 29.15971375 54.24050903 C26.07082852 56.29976585 25.45035448 56.47954643 21.97221375 56.36550903 C20.71408875 56.32425903 19.45596375 56.28300903 18.15971375 56.24050903 C18.15971375 60.20050903 18.15971375 64.16050903 18.15971375 68.24050903 C17.82971375 68.24050903 17.49971375 68.24050903 17.15971375 68.24050903 C17.15971375 65.93050903 17.15971375 63.62050903 17.15971375 61.24050903 C15.83971375 61.90050903 14.51971375 62.56050903 13.15971375 63.24050903 C12.82971375 74.79050903 12.49971375 86.34050903 12.15971375 98.24050903 C11.82971375 98.24050903 11.49971375 98.24050903 11.15971375 98.24050903 C11.15971375 68.21050903 11.15971375 38.18050903 11.15971375 7.24050903 C0.17767019 6.54408605 0.17767019 6.54408605 -8.84028625 10.24050903 C-9.05778105 12.91901995 -9.15169181 15.49725839 -9.15913391 18.17849731 C-9.16917953 18.99808929 -9.17922516 19.81768127 -9.1895752 20.66210938 C-9.2205316 23.37833945 -9.23747673 26.09447042 -9.25434875 28.81082153 C-9.2730504 30.69127259 -9.29262305 32.57171516 -9.31303406 34.45214844 C-9.36446733 39.40706393 -9.40403299 44.36200666 -9.44117737 49.31704712 C-9.48114701 54.37103068 -9.53227137 59.42489984 -9.58247375 64.47879028 C-9.67936552 74.39928296 -9.76372773 84.31984007 -9.84028625 94.24050903 C-10.17028625 94.24050903 -10.50028625 94.24050903 -10.84028625 94.24050903 C-10.84028625 68.50050903 -10.84028625 42.76050903 -10.84028625 16.24050903 C-12.49028625 16.24050903 -14.14028625 16.24050903 -15.84028625 16.24050903 C-16.50992911 8.47265189 -16.50992911 8.47265189 -13.65278625 4.86550903 C-9.3376674 0.83806477 -5.82176662 -0.01059466 0 0 Z " fill="#424242" transform="translate(118.84028625488281,92.75949096679688)"/>
<path d="M0 0 C14.23694779 0 14.23694779 0 21 4 C22 5 22 5 22.12025452 7.70179749 C22.1169236 9.51048561 22.1169236 9.51048561 22.11352539 11.35571289 C22.11367142 12.01910172 22.11381744 12.68249054 22.1139679 13.36598206 C22.11326881 15.56823956 22.10547665 17.77041345 22.09765625 19.97265625 C22.09579206 21.49580336 22.09436816 23.01895107 22.09336853 24.542099 C22.08954346 28.55837651 22.07971328 32.57461808 22.06866455 36.59088135 C22.05845019 40.68623366 22.05387086 44.78159176 22.04882812 48.87695312 C22.038091 56.91798528 22.02101472 64.95898817 22 73 C18.93609051 71.18406334 16.06210879 69.36866763 13.30078125 67.1171875 C12.64916016 66.58996094 11.99753906 66.06273437 11.32617188 65.51953125 C10.66166016 64.97683594 9.99714844 64.43414062 9.3125 63.875 C7.97659156 62.78742535 6.63941094 61.70141095 5.30078125 60.6171875 C4.71466064 60.13878418 4.12854004 59.66038086 3.5246582 59.16748047 C1.99036999 57.91655657 1.99036999 57.91655657 0 57 C0 38.19 0 19.38 0 0 Z " fill="#EBEBEB" transform="translate(269,99)"/>
<path d="M0 0 C23.1 0 46.2 0 70 0 C64.81125149 5.18874851 59.47989588 10.12407114 54 15 C53.1234375 15.81210938 52.246875 16.62421875 51.34375 17.4609375 C50.5084375 18.19570312 49.673125 18.93046875 48.8125 19.6875 C47.70841797 20.68330078 47.70841797 20.68330078 46.58203125 21.69921875 C41.29781745 24.36131133 34.09085141 21.64095245 28.61328125 20.22265625 C27.61593208 19.96554115 27.61593208 19.96554115 26.59843445 19.70323181 C25.20717122 19.34337284 23.81653279 18.98109009 22.42651367 18.61645508 C20.30872499 18.0615108 18.1887636 17.51555812 16.06835938 16.97070312 C10.57663212 15.54549733 5.28175787 14.11270315 0 12 C0 8.04 0 4.08 0 0 Z " fill="#EFEFEF" transform="translate(137,149)"/>
<path d="M0 0 C3.50625 -0.0825 7.0125 -0.165 10.625 -0.25 C11.71893066 -0.28641602 12.81286133 -0.32283203 13.93994141 -0.36035156 C19.96509533 -0.42888202 23.45890819 -0.08551302 28 4 C30.48386059 7.72579089 30.3804212 9.58711402 30 14 C28.09758344 18.65035158 25.5485649 20.07949482 21 22 C23.38912934 26.48342995 25.79047805 30.84481884 28.8125 34.9375 C31 38 31 38 31 40 C28.75390625 40.3203125 28.75390625 40.3203125 26 40 C23.90234375 37.8046875 23.90234375 37.8046875 21.9375 34.875 C21.24398438 33.8746875 20.55046875 32.874375 19.8359375 31.84375 C18.45941889 29.71161054 17.25444665 27.60579923 16.0625 25.375 C13.63684261 22.58181876 12.80636125 22.54534752 9.25 22.125 C7.14625 22.063125 7.14625 22.063125 5 22 C5 27.94 5 33.88 5 40 C3.35 40 1.7 40 0 40 C0 26.8 0 13.6 0 0 Z " fill="#0D0D0D" transform="translate(334,341)"/>
<path d="M0 0 C2.4206543 0.49584961 2.4206543 0.49584961 4.6315918 3.35522461 C5.37196754 4.64133516 6.09226244 5.93914517 6.7956543 7.24584961 C7.17778076 7.92091553 7.55990723 8.59598145 7.95361328 9.29150391 C8.73819909 10.67843757 9.51577311 12.06936059 10.28637695 13.46411133 C11.34553814 15.36130017 12.43922398 17.23062043 13.55737305 19.09350586 C18.4206543 27.2121275 18.4206543 27.2121275 18.4206543 29.49584961 C6.2106543 29.49584961 -5.9993457 29.49584961 -18.5793457 29.49584961 C-16.13906512 23.39514816 -13.01526366 17.88390666 -9.7668457 12.18334961 C-9.1500293 11.0612207 -8.53321289 9.9390918 -7.89770508 8.78295898 C-7.29120117 7.72270508 -6.68469727 6.66245117 -6.05981445 5.57006836 C-5.51220459 4.59642334 -4.96459473 3.62277832 -4.40039062 2.61962891 C-2.5793457 0.49584961 -2.5793457 0.49584961 0 0 Z " fill="#EBEBEB" transform="translate(162.579345703125,113.504150390625)"/>
<path d="M0 0 C0.79550735 0.00092179 1.59101469 0.00184359 2.41062832 0.00279331 C3.77578327 0.00073132 3.77578327 0.00073132 5.16851711 -0.00137234 C6.1748016 0.00222294 7.18108608 0.00581821 8.21786404 0.00952244 C9.27139568 0.00937641 10.32492733 0.00923038 11.41038418 0.00907993 C14.91125415 0.00977957 18.41207166 0.01757435 21.9129324 0.02539158 C24.33288958 0.02725558 26.75284714 0.02867957 29.17280483 0.0296793 C35.55642639 0.03350591 41.94002536 0.04333742 48.32363796 0.05438328 C54.83191529 0.06459432 61.34019625 0.06917626 67.84847927 0.0742197 C80.62908789 0.08495956 93.40968082 0.10184671 106.19027615 0.12304783 C105.53027615 1.77304783 104.87027615 3.42304783 104.19027615 5.12304783 C68.22027615 5.12304783 32.25027615 5.12304783 -4.80972385 5.12304783 C-2.32732022 0.15824055 -2.32732022 0.15824055 0 0 Z " fill="#2C2C2C" transform="translate(142.80972385406494,93.87695217132568)"/>
<path d="M0 0 C1.65 0 3.3 0 5 0 C8.24678397 7.539407 11.28159953 15.15992622 14.25 22.8125 C14.60320312 23.70735107 14.95640625 24.60220215 15.3203125 25.52416992 C17.19151613 30.38939002 18.51793478 34.80362053 19 40 C16.64453125 39.83984375 16.64453125 39.83984375 14 39 C12.63671875 36.56640625 12.63671875 36.56640625 11.6875 33.5625 C11.36136719 32.57378906 11.03523438 31.58507812 10.69921875 30.56640625 C10 28 10 28 10 26 C4.39 26 -1.22 26 -7 26 C-7.45375 27.5675 -7.9075 29.135 -8.375 30.75 C-9.32417377 34.02896392 -10.38274466 36.99049877 -12 40 C-12.66 40 -13.32 40 -14 40 C-13.37423408 35.23129558 -12.02648083 30.95308428 -10.3125 26.484375 C-10.04993408 25.78733459 -9.78736816 25.09029419 -9.5168457 24.37213135 C-8.6830317 22.16277204 -7.84151145 19.95643725 -7 17.75 C-6.43441457 16.25278588 -5.8693056 14.75539168 -5.3046875 13.2578125 C-1.19730546 2.39461091 -1.19730546 2.39461091 0 0 Z " fill="#0F0F0F" transform="translate(309,341)"/>
<path d="M0 0 C5.5553449 1.11106898 6.9658996 2.70157893 10.25 6.875 C10.72453613 7.45781738 11.19907227 8.04063477 11.68798828 8.64111328 C12.66263963 9.83995725 13.63221007 11.04294968 14.59667969 12.25 C16.65662802 14.81884301 18.77121594 17.34201585 20.875 19.875 C24.1279906 23.82064259 27.00717909 27.81005072 30 32 C30.33 21.44 30.66 10.88 31 0 C31.99 0 32.98 0 34 0 C34 13.2 34 26.4 34 40 C28.52559735 38.90511947 28.16683511 38.58778586 25 34.4375 C24.23429687 33.45523438 23.46859375 32.47296875 22.6796875 31.4609375 C22.25913086 30.91405273 21.83857422 30.36716797 21.40527344 29.80371094 C18.70700521 26.34040211 15.90496831 22.96028214 13.125 19.5625 C12.02225983 18.21059518 10.92063626 16.85777853 9.8203125 15.50390625 C9.34867676 14.92455322 8.87704102 14.3452002 8.39111328 13.74829102 C6.88980557 11.8615124 5.44671663 9.92895551 4 8 C3.67 18.56 3.34 29.12 3 40 C2.01 40 1.02 40 0 40 C0 26.8 0 13.6 0 0 Z " fill="#1A1A1A" transform="translate(149,341)"/>
<path d="M0 0 C1.32 0 2.64 0 4 0 C4.0093457 0.87736816 4.01869141 1.75473633 4.02832031 2.65869141 C4.07251603 5.93567422 4.13420652 9.21138143 4.20751953 12.48779297 C4.23562392 13.90173448 4.25689067 15.31583002 4.27099609 16.72998047 C4.29257456 18.77130384 4.33929086 20.81079599 4.390625 22.8515625 C4.41157227 24.07697754 4.43251953 25.30239258 4.45410156 26.56494141 C5.0968351 30.6093336 6.46358578 32.82087717 9 36 C12.19378082 37.59689041 15.52521315 37.37348957 19 37 C21.81281002 35.77703912 23.4152486 34.88473635 25.10693359 32.32519531 C26.31368137 29.1832965 26.32858818 26.40886486 26.4140625 23.046875 C26.43342865 22.38665344 26.4527948 21.72643188 26.4727478 21.04620361 C26.53229349 18.94759847 26.57882722 16.84893772 26.625 14.75 C26.66320294 13.3228934 26.70225602 11.89580928 26.7421875 10.46875 C26.8379733 6.97937309 26.92209642 3.48982714 27 0 C27.99 0 28.98 0 30 0 C30.09935088 4.30495015 30.17169268 8.60928183 30.21972656 12.91503906 C30.23976332 14.37772252 30.26700104 15.84032666 30.30175781 17.30273438 C30.35063225 19.4129601 30.37304659 21.52212136 30.390625 23.6328125 C30.41157227 24.90012207 30.43251953 26.16743164 30.45410156 27.47314453 C29.9151261 31.65918731 28.63589195 33.74212276 26 37 C21.47171635 40.37401527 17.95082443 41.71335006 12.28125 41.4609375 C6.95046673 40.38382718 2.97126875 37.45690313 0 33 C-0.1712914 30.45770403 -0.23242934 28.02810519 -0.1953125 25.48828125 C-0.1924826 24.76005661 -0.18965271 24.03183197 -0.18673706 23.28153992 C-0.17555257 20.95835863 -0.15045166 18.63556453 -0.125 16.3125 C-0.11496794 14.7363337 -0.10584248 13.16016135 -0.09765625 11.58398438 C-0.07561896 7.72250733 -0.04110141 3.86131929 0 0 Z " fill="#262626" transform="translate(230,341)"/>
<path d="M0 0 C13.125 -0.66964286 13.125 -0.66964286 16.8125 2 C18.89765749 4.85964456 19.42563457 5.72683319 19.6875 9.0625 C19 13 19 13 16.6875 15.4375 C11.10512417 18.68306734 6.17825051 18.54456263 0 17 C0 11.39 0 5.78 0 0 Z " fill="#EAEAEA" transform="translate(339,343)"/>
<path d="M0 0 C1.65 0 3.3 0 5 0 C8.96 10.56 12.92 21.12 17 32 C20.15317256 24.43238587 23.28120585 16.86562325 26.3125 9.25 C26.67150391 8.35023438 27.03050781 7.45046875 27.40039062 6.5234375 C28.2677403 4.34928098 29.13427344 2.17480321 30 0 C30.99 0 31.98 0 33 0 C28.57809927 13.56719541 23.34098455 26.77387196 18 40 C16.68 40 15.36 40 14 40 C11.99984367 34.7879665 10.00619099 29.5735104 8.01855469 24.35668945 C7.34130696 22.5819173 6.66227928 20.80782333 5.98144531 19.03442383 C5.00378448 16.48694753 4.03252675 13.93711009 3.0625 11.38671875 C2.75626709 10.59287277 2.45003418 9.79902679 2.13452148 8.98112488 C0 3.34161512 0 3.34161512 0 0 Z " fill="#0F0F0F" transform="translate(94,341)"/>
<path d="M0 0 C3.08797889 1.70574072 4.64069985 3.30365697 7 6 C6.67 6.99 6.34 7.98 6 9 C3.75390625 7.09570312 3.75390625 7.09570312 1.5078125 5.19140625 C-1.76887719 2.60231206 -4.68469236 2.60406357 -8.7421875 2.65625 C-11.28897011 2.86784977 -11.28897011 2.86784977 -13.9375 5.125 C-18.37419908 11.30948962 -18.81125133 17.57855261 -18 25 C-17.09566243 28.5831321 -16.0932556 31.93508993 -14 35 C-10.49916666 36.94686209 -7.92751977 37.19685022 -4 36.6875 C-3.13632813 36.57921875 -2.27265625 36.4709375 -1.3828125 36.359375 C1.0986875 35.98511598 3.55539469 35.57040791 6 35 C6 35.66 6 36.32 6 37 C0.26224501 40.93446057 -6.23799895 40.86323418 -13 40 C-17.97168053 37.52118188 -20.81285456 34.43364815 -23.25 29.4375 C-24.94004896 21.69144227 -25.268797 12.95999511 -21 6 C-15.91012088 -1.32062861 -8.28891081 -1.51413359 0 0 Z " fill="#0C0C0C" transform="translate(216,341)"/>
<path d="M0 0 C1.32 0 2.64 0 4 0 C5.37207031 1.52880859 5.37207031 1.52880859 6.578125 3.6484375 C7.23554688 4.78539062 7.23554688 4.78539062 7.90625 5.9453125 C8.3496875 6.74710938 8.793125 7.54890625 9.25 8.375 C9.70890625 9.1690625 10.1678125 9.963125 10.640625 10.78125 C14 16.68015253 14 16.68015253 14 19 C6.08 19 -1.84 19 -10 19 C-8.74835013 15.87087533 -7.69858563 13.28626875 -6.0546875 10.44921875 C-5.70019531 9.83369141 -5.34570312 9.21816406 -4.98046875 8.58398438 C-4.61566406 7.95814453 -4.25085938 7.33230469 -3.875 6.6875 C-3.50246094 6.04232422 -3.12992188 5.39714844 -2.74609375 4.73242188 C-1.83367787 3.15324055 -0.91724491 1.57638136 0 0 Z " fill="#E7E7E7" transform="translate(202,124)"/>
<path d="M0 0 C0.33 0 0.66 0 1 0 C1 23.1 1 46.2 1 70 C2.32 70.66 3.64 71.32 5 72 C7.0861722 73.57898354 9.01776069 75.28806605 11 77 C10.67 78.65 10.34 80.3 10 82 C6.2129117 81.46168161 4.01301449 80.57369857 1.08203125 78.12890625 C0.03692383 77.26749023 0.03692383 77.26749023 -1.02929688 76.38867188 C-1.74150391 75.78603516 -2.45371094 75.18339844 -3.1875 74.5625 C-3.91130859 73.96373047 -4.63511719 73.36496094 -5.38085938 72.74804688 C-8.00682869 70.56666027 -10.58511415 68.41488585 -13 66 C-9.375 63 -9.375 63 -6 63 C-5.67 62.34 -5.34 61.68 -5 61 C-3.35 61.33 -1.7 61.66 0 62 C0 41.54 0 21.08 0 0 Z " fill="#424242" transform="translate(296,108)"/>
<path d="M0 0 C1.65 0 3.3 0 5 0 C5 12.21 5 24.42 5 37 C10.94 37 16.88 37 23 37 C23 37.99 23 38.98 23 40 C15.41 40 7.82 40 0 40 C0 26.8 0 13.6 0 0 Z " fill="#141414" transform="translate(270,341)"/>
<path d="M0 0 C1.65 0 3.3 0 5 0 C3.68 0.33 2.36 0.66 1 1 C1 13.54 1 26.08 1 39 C1.99 39 2.98 39 4 39 C3.98839844 37.72382813 3.97679687 36.44765625 3.96484375 35.1328125 C3.95546583 33.46354313 3.94636563 31.79427217 3.9375 30.125 C3.92912109 29.28324219 3.92074219 28.44148438 3.91210938 27.57421875 C3.90888672 26.76855469 3.90566406 25.96289062 3.90234375 25.1328125 C3.89710693 24.38918457 3.89187012 23.64555664 3.88647461 22.87939453 C4 21 4 21 5 19 C9.95 19 14.9 19 20 19 C20.5259375 20.3921875 20.5259375 20.3921875 21.0625 21.8125 C23.00007836 26.38967787 25.74048955 30.41390404 28.4765625 34.546875 C30 37 30 37 31 40 C28.75390625 40.3203125 28.75390625 40.3203125 26 40 C23.90234375 37.8046875 23.90234375 37.8046875 21.9375 34.875 C21.24398438 33.8746875 20.55046875 32.874375 19.8359375 31.84375 C18.45941889 29.71161054 17.25444665 27.60579923 16.0625 25.375 C13.63684261 22.58181876 12.80636125 22.54534752 9.25 22.125 C7.14625 22.063125 7.14625 22.063125 5 22 C5 27.94 5 33.88 5 40 C3.35 40 1.7 40 0 40 C0 26.8 0 13.6 0 0 Z " fill="#101010" transform="translate(334,341)"/>
<path d="M0 0 C1.65 0 3.3 0 5 0 C5 13.2 5 26.4 5 40 C3.35 40 1.7 40 0 40 C0 26.8 0 13.6 0 0 Z " fill="#000000" transform="translate(133,341)"/>
<path d="M0 0 C4.45144991 1.5483304 4.45144991 1.5483304 5.875 4 C6.3984603 8.63636264 6.473584 10.89492185 4.25 15 C1.875 17 1.875 17 -1.125 17.625 C-4.125 17 -4.125 17 -6.5 14.9375 C-8.55283478 11.22660635 -8.7974224 9.1839616 -8.125 5 C-5.59445579 1.427467 -4.46056767 0 0 0 Z " fill="#E6E6E6" transform="translate(226.125,405)"/>
<path d="M0 0 C4.41709389 2.01967189 7.38119026 4.94106044 10.8125 8.3125 C11.42287109 8.88162109 12.03324219 9.45074219 12.66210938 10.03710938 C14.28481152 11.63054068 15.73346734 13.11029866 17 15 C16.88671875 17.91796875 16.88671875 17.91796875 16 20 C11.96342918 19.48514682 10.04785523 18.53647628 7.23046875 15.62109375 C6.56982422 14.94755859 5.90917969 14.27402344 5.22851562 13.58007812 C4.55498047 12.87302734 3.88144531 12.16597656 3.1875 11.4375 C2.49462891 10.72658203 1.80175781 10.01566406 1.08789062 9.28320312 C-0.6174517 7.53081688 -2.31275176 5.76978531 -4 4 C-3.01 3.34 -2.02 2.68 -1 2 C-0.67 1.34 -0.34 0.68 0 0 Z " fill="#373737" transform="translate(278,206)"/>
<path d="M0 0 C5.66319639 0.49490322 11.0103241 1.62400159 16.5 3.0625 C17.59054688 3.3419043 17.59054688 3.3419043 18.703125 3.62695312 C20.46987724 4.08026455 22.23510775 4.5395002 24 5 C23.67 7.31 23.34 9.62 23 12 C20.47878568 11.37650642 17.95803069 10.75124639 15.4375 10.125 C14.73302734 9.95097656 14.02855469 9.77695313 13.30273438 9.59765625 C8.83975002 8.48705185 4.41512948 7.28798784 0 6 C-0.38218767 4.34385343 -0.71395102 2.67542976 -1 1 C-0.67 0.67 -0.34 0.34 0 0 Z " fill="#343434" transform="translate(202,179)"/>
<path d="M0 0 C1.32 0 2.64 0 4 0 C4.33 11.22 4.66 22.44 5 34 C4.01 34.495 4.01 34.495 3 35 C2.01 34.34 1.02 33.68 0 33 C-0.26711404 30.44604513 -0.34849029 28.13725626 -0.29296875 25.5859375 C-0.28872391 24.85629791 -0.28447906 24.12665833 -0.28010559 23.37490845 C-0.26329353 21.04123241 -0.22563868 18.7084156 -0.1875 16.375 C-0.17245634 14.79428329 -0.15876738 13.21355307 -0.14648438 11.6328125 C-0.11338201 7.75487656 -0.06158404 3.87758402 0 0 Z " fill="#030303" transform="translate(230,341)"/>
<path d="M0 0 C2.60649468 2.60649468 3.44024981 5.53134321 4.625 8.9375 C4.85445313 9.57107422 5.08390625 10.20464844 5.3203125 10.85742188 C6.32801716 13.70958596 7 15.95183307 7 19 C2.71 19 -1.58 19 -6 19 C-4.87481371 12.24888227 -4.87481371 12.24888227 -3.5625 8.9375 C-3.29953125 8.26589844 -3.0365625 7.59429687 -2.765625 6.90234375 C-2.38664062 5.96068359 -2.38664062 5.96068359 -2 5 C-1.608125 4.01 -1.21625 3.02 -0.8125 2 C-0.544375 1.34 -0.27625 0.68 0 0 Z " fill="#E9E9E9" transform="translate(310,345)"/>
<path d="M0 0 C3.21954645 2.53453657 4.70432435 4.11297305 6 8 C5.38125 8.12375 4.7625 8.2475 4.125 8.375 C1.80879168 8.87197356 1.80879168 8.87197356 0 11 C-0.66 9.35 -1.32 7.7 -2 6 C-4.88575819 6.39803561 -5.82189513 6.79009069 -7.75 9.0625 C-8.36875 10.0215625 -8.36875 10.0215625 -9 11 C-9 10.34 -9 9.68 -9 9 C-9.94875 9.639375 -10.8975 10.27875 -11.875 10.9375 C-15 13 -15 13 -17 14 C-13.97103561 5.18846722 -10.31090166 -1.79749435 0 0 Z " fill="#383838" transform="translate(208,118)"/>
<path d="M0 0 C4.866909 0.45273572 7.4419325 1.64525064 11 5 C12.53214888 8.06429776 12.22938548 10.6165642 12 14 C10.69666618 16.9325011 9.67469316 18.5211855 7.0625 20.375 C4.6386954 21.10948624 3.35683494 20.84172676 1 20 C1 19.34 1 18.68 1 18 C1.66 17.62875 2.32 17.2575 3 16.875 C5.42504514 15.00083017 5.42504514 15.00083017 5.5 11.0625 C5.35605591 7.91876118 5.16402709 7.19577427 3.0625 4.6875 C2.381875 4.130625 1.70125 3.57375 1 3 C0.67 2.01 0.34 1.02 0 0 Z " fill="#131313" transform="translate(352,341)"/>
<path d="M0 0 C3.10941941 1.68712977 4.63457805 3.29666063 7 6 C6.67 6.99 6.34 7.98 6 9 C3.75390625 7.09570312 3.75390625 7.09570312 1.5078125 5.19140625 C-1.76887719 2.60231206 -4.68469236 2.60406357 -8.7421875 2.65625 C-11.28897011 2.86784977 -11.28897011 2.86784977 -13.9375 5.125 C-16.15638811 7.88419118 -16.15638811 7.88419118 -16.9375 11.1875 C-17.288125 12.115625 -17.63875 13.04375 -18 14 C-21.125 15.375 -21.125 15.375 -24 16 C-22.82711122 9.81567732 -21.40593976 6.5134017 -17 2 C-11.90102917 -1.39931389 -5.9363193 -0.8004026 0 0 Z " fill="#101010" transform="translate(216,341)"/>
<path d="M0 0 C1.65 0 3.3 0 5 0 C5 13.2 5 26.4 5 40 C3.35 40 1.7 40 0 40 C0 26.8 0 13.6 0 0 Z M1 1 C1 12.88 1 24.76 1 37 C1.66 37 2.32 37 3 37 C4.53297297 33.93405406 4.12131455 30.72888147 4.09765625 27.3671875 C4.0962413 26.61535187 4.09482635 25.86351624 4.09336853 25.08889771 C4.08776465 22.6842249 4.07521157 20.27964473 4.0625 17.875 C4.0574855 16.24609509 4.0529225 14.61718873 4.04882812 12.98828125 C4.03779397 8.99215173 4.02052679 4.99609158 4 1 C3.01 1 2.02 1 1 1 Z " fill="#2F2F2F" transform="translate(133,341)"/>
<path d="M0 0 C0.99 0 1.98 0 3 0 C-0.63099378 11.1405491 -4.7629567 22.07745804 -9 33 C-9.99 33 -10.98 33 -12 33 C-9.88804509 25.43137471 -7.22216627 18.17004844 -4.3125 10.875 C-3.68891602 9.2971875 -3.68891602 9.2971875 -3.05273438 7.6875 C-2.03880049 5.12352925 -1.02117166 2.56109468 0 0 Z " fill="#1B1B1B" transform="translate(124,341)"/>
<path d="M0 0 C1.65 0 3.3 0 5 0 C3.68 0.33 2.36 0.66 1 1 C1 13.54 1 26.08 1 39 C1.99 39 2.98 39 4 39 C3.98839844 37.72382813 3.97679687 36.44765625 3.96484375 35.1328125 C3.95546583 33.46354313 3.94636563 31.79427217 3.9375 30.125 C3.92912109 29.28324219 3.92074219 28.44148438 3.91210938 27.57421875 C3.90888672 26.76855469 3.90566406 25.96289062 3.90234375 25.1328125 C3.89710693 24.38918457 3.89187012 23.64555664 3.88647461 22.87939453 C4 21 4 21 5 19 C9.29 19 13.58 19 18 19 C17.67 19.66 17.34 20.32 17 21 C16.34 21 15.68 21 15 21 C14.67 21.66 14.34 22.32 14 23 C11.03 22.67 8.06 22.34 5 22 C5 27.94 5 33.88 5 40 C3.35 40 1.7 40 0 40 C0 26.8 0 13.6 0 0 Z " fill="#171717" transform="translate(334,341)"/>
<path d="M0 0 C4.45144991 1.5483304 4.45144991 1.5483304 5.875 4 C6.3984603 8.63636264 6.473584 10.89492185 4.25 15 C1.875 17 1.875 17 -1.125 17.625 C-4.125 17 -4.125 17 -6.5 14.9375 C-8.55283478 11.22660635 -8.7974224 9.1839616 -8.125 5 C-5.59445579 1.427467 -4.46056767 0 0 0 Z M-4.125 2 C-5.37569801 4.50139602 -5.25802467 6.27392691 -5.25 9.0625 C-5.25257813 9.96097656 -5.25515625 10.85945313 -5.2578125 11.78515625 C-5.37238223 13.97378893 -5.37238223 13.97378893 -4.125 15 C-1.16682893 15.25005386 -1.16682893 15.25005386 1.875 15 C4.48204898 12.39295102 4.11405333 10.52661759 4.140625 6.97265625 C3.97882514 4.68047674 3.97882514 4.68047674 1.875 2 C-1.20865871 1.7497843 -1.20865871 1.7497843 -4.125 2 Z " fill="#454545" transform="translate(226.125,405)"/>
<path d="M0 0 C3.68006822 3.38168431 5.9785845 6.42521756 8 11 C6.35 12.32 4.7 13.64 3 15 C0.36 11.37 -2.28 7.74 -5 4 C-3.35 2.68 -1.7 1.36 0 0 Z " fill="#373737" transform="translate(328,91)"/>
<path d="M0 0 C5.03985731 0.44469329 7.37634988 2.71343362 11 6 C10.67 7.65 10.34 9.3 10 11 C4.64847115 10.67566492 1.71719957 7.50295176 -2 4 C-1.34 2.68 -0.68 1.36 0 0 Z " fill="#313131" transform="translate(296,179)"/>
<path d="M0 0 C2.31 0.66 4.62 1.32 7 2 C7.33 3.65 7.66 5.3 8 7 C3.76674194 8.18594057 0.89604576 7.71869389 -3.3125 6.5625 C-4.38113281 6.27503906 -5.44976562 5.98757812 -6.55078125 5.69140625 C-7.35902344 5.46324219 -8.16726562 5.23507813 -9 5 C-7.171875 2.984375 -7.171875 2.984375 -5 1 C-2.25 1.25 -2.25 1.25 0 2 C0 1.34 0 0.68 0 0 Z " fill="#343434" transform="translate(187,174)"/>
<path d="M0 0 C0.99 0.66 1.98 1.32 3 2 C0.91156718 8.45611974 -1.19040342 14.81888753 -4 21 C0.62 20.67 5.24 20.34 10 20 C10 20.66 10 21.32 10 22 C8.86820312 21.98839844 7.73640625 21.97679687 6.5703125 21.96484375 C5.08854331 21.95546546 3.60677235 21.9463653 2.125 21.9375 C1.37863281 21.92912109 0.63226563 21.92074219 -0.13671875 21.91210938 C-4.19845578 21.79311916 -4.19845578 21.79311916 -8 23 C-5.81659819 15.13620323 -3.00714974 7.58324716 0 0 Z " fill="#3B3B3B" transform="translate(308,343)"/>
<path d="M0 0 C3.45101522 4.24740335 6.73279209 8.61105071 10 13 C7.69 13.66 5.38 14.32 3 15 C2.13050683 13.92892883 1.27985795 12.84254056 0.4375 11.75 C-0.03816406 11.14671875 -0.51382812 10.5434375 -1.00390625 9.921875 C-2 8 -2 8 -1.6875 5.90625 C-1.460625 5.2771875 -1.23375 4.648125 -1 4 C-0.814375 3.2575 -0.62875 2.515 -0.4375 1.75 C-0.293125 1.1725 -0.14875 0.595 0 0 Z " fill="#3E3E3E" transform="translate(274,232)"/>
<path d="M0 0 C0.33 0 0.66 0 1 0 C1 2.97 1 5.94 1 9 C2.98 8.34 4.96 7.68 7 7 C7 10.3 7 13.6 7 17 C4.625 17.625 4.625 17.625 2 18 C0 16 0 16 -0.1953125 12.3046875 C-0.182009 10.82799892 -0.15814835 9.35137642 -0.125 7.875 C-0.11146484 6.74384766 -0.11146484 6.74384766 -0.09765625 5.58984375 C-0.0740687 3.72642746 -0.03819719 1.86317407 0 0 Z " fill="#616161" transform="translate(310,148)"/>
<path d="M0 0 C0.97582031 0.00902344 1.95164062 0.01804687 2.95703125 0.02734375 C4.06111328 0.04474609 4.06111328 0.04474609 5.1875 0.0625 C5.1875 1.0525 5.1875 2.0425 5.1875 3.0625 C1.36759548 4.86010213 -1.59678287 5.34993526 -5.8125 5.0625 C-6.1425 4.7325 -6.4725 4.4025 -6.8125 4.0625 C-7.1425 4.7225 -7.4725 5.3825 -7.8125 6.0625 C-9.4625 5.7325 -11.1125 5.4025 -12.8125 5.0625 C-12.125 3.125 -12.125 3.125 -10.8125 1.0625 C-7.18953724 0.04194711 -3.74663629 -0.0451402 0 0 Z " fill="#2D2D2D" transform="translate(287.8125,64.9375)"/>
<path d="M0 0 C1.65 0 3.3 0 5 0 C5.6987693 1.76641683 6.38366583 3.53832664 7.0625 5.3125 C7.44535156 6.29863281 7.82820313 7.28476562 8.22265625 8.30078125 C9 11 9 11 8 14 C7.34 14 6.68 14 6 14 C5.67 14.66 5.34 15.32 5 16 C4.1605118 13.89828133 3.32860344 11.79353375 2.5 9.6875 C2.0359375 8.51574219 1.571875 7.34398437 1.09375 6.13671875 C0 3 0 3 0 0 Z " fill="#131313" transform="translate(94,341)"/>
<path d="M0 0 C0.33 0 0.66 0 1 0 C1.04934926 5.65998046 1.08569529 11.31983636 1.10986328 16.97998047 C1.11993582 18.90643494 1.13359443 20.83287408 1.15087891 22.75927734 C1.17507241 25.52445252 1.18647036 28.289426 1.1953125 31.0546875 C1.20563507 31.9193161 1.21595764 32.7839447 1.22659302 33.67477417 C1.22699106 35.78453521 1.12265243 37.89380718 1 40 C0.34 40.66 -0.32 41.32 -1 42 C-1.66 41.34 -2.32 40.68 -3 40 C-3.495 40.495 -3.495 40.495 -4 41 C-5.99958364 41.04080783 -8.00045254 41.04254356 -10 41 C-9.67 40.34 -9.34 39.68 -9 39 C-7.68 39.33 -6.36 39.66 -5 40 C-5.33 38.68 -5.66 37.36 -6 36 C-4.35 36.33 -2.7 36.66 -1 37 C-0.67 24.79 -0.34 12.58 0 0 Z " fill="#E1E1E1" transform="translate(333,341)"/>
<path d="M0 0 C-0.763125 0.598125 -1.52625 1.19625 -2.3125 1.8125 C-4.9120261 3.79358339 -4.9120261 3.79358339 -6.4375 5.6875 C-10.84861755 9.39283874 -18.5424533 8.09707099 -24 8 C-23.67 7.01 -23.34 6.02 -23 5 C-22.67 5.66 -22.34 6.32 -22 7 C-20.700625 6.87625 -19.40125 6.7525 -18.0625 6.625 C-17.33160156 6.55539063 -16.60070312 6.48578125 -15.84765625 6.4140625 C-14.93306641 6.20910156 -14.93306641 6.20910156 -14 6 C-13.67 5.34 -13.34 4.68 -13 4 C-12.34 4.33 -11.68 4.66 -11 5 C-11 4.01 -11 3.02 -11 2 C-11.99 1.67 -12.98 1.34 -14 1 C-9.23692563 0.04738513 -4.8333472 -0.08333357 0 0 Z " fill="#424242" transform="translate(304,63)"/>
<path d="M0 0 C3.3 0 6.6 0 10 0 C10 0.33 10 0.66 10 1 C7.36 1 4.72 1 2 1 C2 2.98 2 4.96 2 7 C4.31 7 6.62 7 9 7 C9 7.33 9 7.66 9 8 C6.69 8 4.38 8 2 8 C2 9.98 2 11.96 2 14 C4.97 14 7.94 14 11 14 C11 14.66 11 15.32 11 16 C7.37 16 3.74 16 0 16 C0 10.72 0 5.44 0 0 Z " fill="#4E4E4E" transform="translate(144,406)"/>
<path d="M0 0 C0.99 0.33 1.98 0.66 3 1 C2.4376049 4.26189156 1.5859495 5.91134848 -1 8 C-4.92296433 9.30765478 -7.86002433 9.1971417 -12 9 C-12.66 8.34 -13.32 7.68 -14 7 C-12.27473958 6.28385417 -10.54947917 5.56770833 -8.82421875 4.8515625 C-6.73466068 3.93193308 -6.73466068 3.93193308 -4 2 C-3.01 2.99 -2.02 3.98 -1 5 C-0.67 3.35 -0.34 1.7 0 0 Z " fill="#E7E7E7" transform="translate(253,370)"/>
<path d="M0 0 C2.31 1.98 4.62 3.96 7 6 C6.67 7.65 6.34 9.3 6 11 C3.35831079 10.64301497 1.39109264 10.247692 -0.875 8.8125 C-2 7 -2 7 -1.75 3.875 C-1 1 -1 1 0 0 Z " fill="#3A3A3A" transform="translate(288,215)"/>
<path d="M0 0 C0.66 0 1.32 0 2 0 C3.60178593 1.78104718 5.13381926 3.62537278 6.625 5.5 C7.85089844 7.03140625 7.85089844 7.03140625 9.1015625 8.59375 C9.72804688 9.3878125 10.35453125 10.181875 11 11 C11.33 7.37 11.66 3.74 12 0 C12.33 0 12.66 0 13 0 C13 4.95 13 9.9 13 15 C7.59936566 12.29968283 5.58713322 8.82883318 2 4 C1.67 7.63 1.34 11.26 1 15 C0.67 15 0.34 15 0 15 C0 10.05 0 5.1 0 0 Z " fill="#262626" transform="translate(258,406)"/>
<path d="M0 0 C5.40063434 2.70031717 7.41286678 6.17116682 11 11 C11.33 7.37 11.66 3.74 12 0 C12.33 0 12.66 0 13 0 C13 4.95 13 9.9 13 15 C7.59936566 12.29968283 5.58713322 8.82883318 2 4 C1.67 7.63 1.34 11.26 1 15 C0.67 15 0.34 15 0 15 C0 10.05 0 5.1 0 0 Z " fill="#323232" transform="translate(238,406)"/>
<path d="M0 0 C3.3 0 6.6 0 10 0 C10 0.33 10 0.66 10 1 C7.03 1 4.06 1 1 1 C1 2.98 1 4.96 1 7 C3.64 7 6.28 7 9 7 C9 7.33 9 7.66 9 8 C6.69 8 4.38 8 2 8 C2 9.98 2 11.96 2 14 C4.97 14 7.94 14 11 14 C11 14.66 11 15.32 11 16 C7.37 16 3.74 16 0 16 C0 10.72 0 5.44 0 0 Z " fill="#565656" transform="translate(278,406)"/>
<path d="M0 0 C0 0.33 0 0.66 0 1 C-0.969375 1.12375 -1.93875 1.2475 -2.9375 1.375 C-3.948125 1.58125 -4.95875 1.7875 -6 2 C-7.49297212 4.98594424 -7.11755228 7.70853624 -7 11 C-6.67 11.66 -6.34 12.32 -6 13 C-3.36 13 -0.72 13 2 13 C2 13.66 2 14.32 2 15 C-0.84083641 16.42041821 -2.85477278 16.31452272 -6 16 C-8.375 14.5625 -8.375 14.5625 -10 12 C-10.61389578 8.87314768 -10.6631209 6.12124149 -10 3 C-6.81199122 -0.82561054 -4.71552816 -1.61675251 0 0 Z " fill="#4F4F4F" transform="translate(212,406)"/>
<path d="M0 0 C-0.33 0.66 -0.66 1.32 -1 2 C-3.31 1.67 -5.62 1.34 -8 1 C-8 2.32 -8 3.64 -8 5 C-7.2575 5.12375 -6.515 5.2475 -5.75 5.375 C-3.19858515 5.95486701 -1.2732427 6.73708739 1 8 C1 9.98 1 11.96 1 14 C-0.32 14.33 -1.64 14.66 -3 15 C-2.34 14.67 -1.68 14.34 -1 14 C-1 12.35 -1 10.7 -1 9 C-1.928125 8.87625 -2.85625 8.7525 -3.8125 8.625 C-7 8 -7 8 -10 6 C-10.375 3.5 -10.375 3.5 -10 1 C-6.1496895 -1.56687367 -4.41430237 -0.83288724 0 0 Z " fill="#454545" transform="translate(186,406)"/>
<path d="M0 0 C3.96 0 7.92 0 12 0 C10.68 0.33 9.36 0.66 8 1 C8 5.95 8 10.9 8 16 C7.01 15.67 6.02 15.34 5 15 C5 10.38 5 5.76 5 1 C3.35 1 1.7 1 0 1 C0 0.67 0 0.34 0 0 Z " fill="#616161" transform="translate(309,406)"/>
<path d="M0 0 C3.96 0 7.92 0 12 0 C10.68 0.33 9.36 0.66 8 1 C8 5.95 8 10.9 8 16 C7.01 15.67 6.02 15.34 5 15 C5 10.38 5 5.76 5 1 C3.35 1 1.7 1 0 1 C0 0.67 0 0.34 0 0 Z " fill="#606060" transform="translate(159,406)"/>
<path d="M0 0 C0 0.33 0 0.66 0 1 C-2.31 1.66 -4.62 2.32 -7 3 C-7.02689216 4.47906892 -7.04634621 5.95827483 -7.0625 7.4375 C-7.07410156 8.26121094 -7.08570313 9.08492188 -7.09765625 9.93359375 C-7.23267348 11.99163938 -7.23267348 11.99163938 -6 13 C-3.67182036 13.36760731 -1.3381615 13.70241581 1 14 C0.34 14.66 -0.32 15.32 -1 16 C-4.5 15.8125 -4.5 15.8125 -8 15 C-10.66552668 11.00170998 -10.83001531 7.70059692 -10 3 C-6.81199122 -0.82561054 -4.71552816 -1.61675251 0 0 Z " fill="#353535" transform="translate(304,406)"/>
<path d="M0 0 C0.66 0 1.32 0 2 0 C2 4.62 2 9.24 2 14 C4.31 14 6.62 14 9 14 C9 14.66 9 15.32 9 16 C6.03 16 3.06 16 0 16 C0 10.72 0 5.44 0 0 Z " fill="#4D4D4D" transform="translate(130,406)"/>
<path d="M0 0 C2.97 0 5.94 0 9 0 C9 0.66 9 1.32 9 2 C9.66 2.66 10.32 3.32 11 4 C9.68 4.99 8.36 5.98 7 7 C4.69 6.01 2.38 5.02 0 4 C0 2.68 0 1.36 0 0 Z " fill="#E1E1E1" transform="translate(178,407)"/>
<path d="M0 0 C4.29 0 8.58 0 13 0 C12.67 0.66 12.34 1.32 12 2 C11.34 2 10.68 2 10 2 C9.67 2.66 9.34 3.32 9 4 C6.03 3.67 3.06 3.34 0 3 C0 8.94 0 14.88 0 21 C-0.33 21 -0.66 21 -1 21 C-1.02895976 17.87501937 -1.04678483 14.7500731 -1.0625 11.625 C-1.07087891 10.73554688 -1.07925781 9.84609375 -1.08789062 8.9296875 C-1.09111328 8.07890625 -1.09433594 7.228125 -1.09765625 6.3515625 C-1.10289307 5.56604004 -1.10812988 4.78051758 -1.11352539 3.97119141 C-1 2 -1 2 0 0 Z " fill="#363636" transform="translate(339,360)"/>
<path d="M0 0 C5.94 0 11.88 0 18 0 C18 0.99 18 1.98 18 3 C10.41 3 2.82 3 -5 3 C-5 2.67 -5 2.34 -5 2 C-3.35 1.67 -1.7 1.34 0 1 C0 0.67 0 0.34 0 0 Z " fill="#282828" transform="translate(275,378)"/>
<path d="M0 0 C12.28609865 -0.92017937 12.28609865 -0.92017937 16.48828125 1.3359375 C18.375 3 18.375 3 21 6 C20.67 6.99 20.34 7.98 20 9 C19.195625 8.21625 18.39125 7.4325 17.5625 6.625 C13.73725588 3.41614592 9.82920985 2.76344126 5 2 C3.989375 1.79375 2.97875 1.5875 1.9375 1.375 C1.298125 1.25125 0.65875 1.1275 0 1 C0 0.67 0 0.34 0 0 Z " fill="#232323" transform="translate(202,341)"/>
<path d="M0 0 C2.31 0 4.62 0 7 0 C7.33 0.66 7.66 1.32 8 2 C7.22265625 3.7265625 7.22265625 3.7265625 6.0625 5.625 C5.381875 6.73875 4.70125 7.8525 4 9 C0 4.5 0 4.5 0 0 Z " fill="#E9E9E9" transform="translate(183,130)"/>
<path d="M0 0 C0 3 0 3 -1.5 4.6875 C-1.995 5.120625 -2.49 5.55375 -3 6 C-3.66 5.67 -4.32 5.34 -5 5 C-3.35 3.35 -1.7 1.7 0 0 Z M-7 6 C-6.34 6.33 -5.68 6.66 -5 7 C-5.7115625 7.5878125 -5.7115625 7.5878125 -6.4375 8.1875 C-8.35179633 10.40808374 -8.61266988 12.13375709 -9 15 C-10.98 15 -12.96 15 -15 15 C-13.90101298 11.70303895 -13.05402613 10.95329411 -10.4375 8.8125 C-9.79683594 8.28269531 -9.15617188 7.75289062 -8.49609375 7.20703125 C-7.75552734 6.60955078 -7.75552734 6.60955078 -7 6 Z " fill="#DFDFDF" transform="translate(203,160)"/>
<path d="M0 0 C0.99 0 1.98 0 3 0 C2.80664062 0.56847656 2.61328125 1.13695312 2.4140625 1.72265625 C0.81863577 6.45364938 -0.66900586 11.18794425 -2 16 C-2.99 15.34 -3.98 14.68 -5 14 C-3.45730076 9.27934033 -1.92205381 4.58335908 0 0 Z " fill="#292929" transform="translate(124,341)"/>
<path d="M0 0 C2 0.25 2 0.25 4 1 C5.2077558 4.62326739 4.54311128 5.64146369 3 9 C1.35 7.68 -0.3 6.36 -2 5 C-1.125 1.125 -1.125 1.125 0 0 Z " fill="#313131" transform="translate(283,212)"/>
<path d="M0 0 C2.31 1.98 4.62 3.96 7 6 C6.67 7.32 6.34 8.64 6 10 C5.01 10.33 4.02 10.66 3 11 C2.34 9.68 1.68 8.36 1 7 C0.67 7 0.34 7 0 7 C0 4.69 0 2.38 0 0 Z " fill="#E8E8E8" transform="translate(297,108)"/>
<path d="M0 0 C0.66 0 1.32 0 2 0 C1.53328373 5.41390868 0.75702189 9.20517932 -2 14 C-2.66 14 -3.32 14 -4 14 C-3.36843005 8.94744036 -1.86540627 4.70406799 0 0 Z " fill="#1E1E1E" transform="translate(299,367)"/>
<path d="M0 0 C1.11375 0.3403125 1.11375 0.3403125 2.25 0.6875 C2.25 2.0075 2.25 3.3275 2.25 4.6875 C2.91 5.0175 3.57 5.3475 4.25 5.6875 C2.991875 5.56375 1.73375 5.44 0.4375 5.3125 C-0.62404297 5.20808594 -0.62404297 5.20808594 -1.70703125 5.1015625 C-3.75 4.6875 -3.75 4.6875 -6.75 2.6875 C-4.29511132 0.41445492 -3.41240272 -0.38777304 0 0 Z " fill="#414141" transform="translate(184.75,175.3125)"/>
<path d="M0 0 C0.86625 0.3403125 0.86625 0.3403125 1.75 0.6875 C0.76 1.1825 0.76 1.1825 -0.25 1.6875 C0.41 3.9975 1.07 6.3075 1.75 8.6875 C-1.307952 6.95190562 -3.88379989 5.30277381 -6.25 2.6875 C-2.80384615 -0.38942308 -2.80384615 -0.38942308 0 0 Z " fill="#3E3E3E" transform="translate(289.25,171.3125)"/>
<path d="M0 0 C1.98 0 3.96 0 6 0 C5.01 1.98 4.02 3.96 3 6 C0.03 6 -2.94 6 -6 6 C-6 5.67 -6 5.34 -6 5 C-4.02 4.34 -2.04 3.68 0 3 C0 2.01 0 1.02 0 0 Z " fill="#383838" transform="translate(342,258)"/>
<path d="M0 0 C2.64 0 5.28 0 8 0 C7.67 1.32 7.34 2.64 7 4 C8.32 4.66 9.64 5.32 11 6 C7.37 6.33 3.74 6.66 0 7 C1.32 6.67 2.64 6.34 4 6 C4 4.35 4 2.7 4 1 C2.68 0.67 1.36 0.34 0 0 Z " fill="#555555" transform="translate(269,66)"/>
<path d="M0 0 C3.875 1.875 3.875 1.875 5 3 C5.4729064 10.21182266 5.4729064 10.21182266 3.5 13.5 C3.005 13.995 2.51 14.49 2 15 C1.34 14.67 0.68 14.34 0 14 C0.66 13.34 1.32 12.68 2 12 C2.45384636 5.68292673 2.45384636 5.68292673 0 0 Z " fill="#252525" transform="translate(227,406)"/>
<path d="M0 0 C0.66 0 1.32 0 2 0 C3.2890625 1.53125 3.2890625 1.53125 4.625 3.5 C5.07101562 4.1496875 5.51703125 4.799375 5.9765625 5.46875 C6.31429688 5.9740625 6.65203125 6.479375 7 7 C6.01 7 5.02 7 4 7 C3.34 6.01 2.68 5.02 2 4 C1.67 7.63 1.34 11.26 1 15 C0.67 15 0.34 15 0 15 C0 10.05 0 5.1 0 0 Z " fill="#3A3A3A" transform="translate(258,406)"/>
<path d="M0 0 C0.66 0 1.32 0 2 0 C2 3.3 2 6.6 2 10 C1.01 10 0.02 10 -1 10 C-1.02689216 8.52093108 -1.04634621 7.04172517 -1.0625 5.5625 C-1.07410156 4.73878906 -1.08570313 3.91507812 -1.09765625 3.06640625 C-1 1 -1 1 0 0 Z " fill="#070707" transform="translate(336,370)"/>
<path d="M0 0 C0.33 0 0.66 0 1 0 C1 4.95 1 9.9 1 15 C-3 13 -3 13 -4.25 10.375 C-4.4975 9.59125 -4.745 8.8075 -5 8 C-3.68 8.99 -2.36 9.98 -1 11 C-0.67 7.37 -0.34 3.74 0 0 Z " fill="#2A2A2A" transform="translate(250,406)"/>
<path d="M0 0 C1.98 1.32 3.96 2.64 6 4 C5.34 4.66 4.68 5.32 4 6 C3.01 6 2.02 6 1 6 C0.67 6.66 0.34 7.32 0 8 C-0.66 7.67 -1.32 7.34 -2 7 C-2.625 4.9375 -2.625 4.9375 -3 3 C-2.34 2.67 -1.68 2.34 -1 2 C-0.34 2.66 0.32 3.32 1 4 C0.67 2.68 0.34 1.36 0 0 Z " fill="#E3E3E3" transform="translate(285,176)"/>
<path d="M0 0 C0.45375 0.639375 0.9075 1.27875 1.375 1.9375 C2.83921726 4.09702406 2.83921726 4.09702406 5 5 C4.67 6.65 4.34 8.3 4 10 C3.01 9.67 2.02 9.34 1 9 C-0.4783226 6.04335481 -0.06032783 3.25770263 0 0 Z " fill="#E5E5E5" transform="translate(204,410)"/>
<path d="M0 0 C0.33 0 0.66 0 1 0 C1 3.96 1 7.92 1 12 C-0.7074998 10.71937515 -2.37373596 9.38232443 -4 8 C-4 7.34 -4 6.68 -4 6 C-2.68 6 -1.36 6 0 6 C0 4.02 0 2.04 0 0 Z " fill="#D5D5D5" transform="translate(269,406)"/>
<path d="M0 0 C1.65 0.33 3.3 0.66 5 1 C5.33 2.65 5.66 4.3 6 6 C5.01 5.34 4.02 4.68 3 4 C2.67 4.33 2.34 4.66 2 5 C0.00041636 5.04080783 -2.00045254 5.04254356 -4 5 C-3.67 4.34 -3.34 3.68 -3 3 C-1.02 3.495 -1.02 3.495 1 4 C0.67 2.68 0.34 1.36 0 0 Z " fill="#D9D9D9" transform="translate(327,377)"/>
<path d="M0 0 C0.66 0 1.32 0 2 0 C2 1.98 2 3.96 2 6 C0.68 6.33 -0.64 6.66 -2 7 C-2.33 6.01 -2.66 5.02 -3 4 C-1.6875 1.8125 -1.6875 1.8125 0 0 Z " fill="#2F2F2F" transform="translate(314,159)"/>
<path d="M0 0 C2.50037734 2.17424117 3.43628586 3.73045798 4 7 C0.75791433 6.64950425 -0.61527704 6.43778819 -2.8125 3.9375 C-3.4003125 2.9784375 -3.4003125 2.9784375 -4 2 C-3.01 2 -2.02 2 -1 2 C-0.67 1.34 -0.34 0.68 0 0 Z " fill="#1F1F1F" transform="translate(235,373)"/>
<path d="M0 0 C1.65 0 3.3 0 5 0 C5.33 1.65 5.66 3.3 6 5 C4.35 5.33 2.7 5.66 1 6 C0.67 4.02 0.34 2.04 0 0 Z " fill="#212121" transform="translate(94,341)"/>
<path d="M0 0 C0.99 0 1.98 0 3 0 C5.35723489 2.53184488 6 3.47190093 6 7 C5.01 7.33 4.02 7.66 3 8 C0 2.25 0 2.25 0 0 Z " fill="#313131" transform="translate(275,237)"/>
<path d="M0 0 C2.475 0.495 2.475 0.495 5 1 C5.33 2.32 5.66 3.64 6 5 C4.68 5 3.36 5 2 5 C1.34 4.34 0.68 3.68 0 3 C0 2.01 0 1.02 0 0 Z " fill="#E9E9E9" transform="translate(139,377)"/>
<path d="M0 0 C0.86625 0.3403125 0.86625 0.3403125 1.75 0.6875 C1.75 1.0175 1.75 1.3475 1.75 1.6875 C0.1 1.6875 -1.55 1.6875 -3.25 1.6875 C-3.58 4.6575 -3.91 7.6275 -4.25 10.6875 C-4.58 10.6875 -4.91 10.6875 -5.25 10.6875 C-5.58 8.0475 -5.91 5.4075 -6.25 2.6875 C-2.80384615 -0.38942308 -2.80384615 -0.38942308 0 0 Z " fill="#6A6A6A" transform="translate(225.25,405.3125)"/>
<path d="M0 0 C1.4606285 2.64738916 2 3.89448334 2 7 C0.35 6.67 -1.3 6.34 -3 6 C-2 4 -1 2 0 0 Z " fill="#202020" transform="translate(326,374)"/>
<path d="M0 0 C1.0326802 2.78823655 1.04509293 3.8677274 0.0625 6.75 C-0.288125 7.4925 -0.63875 8.235 -1 9 C-1.66 9 -2.32 9 -3 9 C-2.25 2.25 -2.25 2.25 0 0 Z " fill="#141414" transform="translate(305,354)"/>
<path d="M0 0 C1.5 1.375 1.5 1.375 3 3 C3 3.66 3 4.32 3 5 C1.02 5.66 -0.96 6.32 -3 7 C-3.33 6.01 -3.66 5.02 -4 4 C-3.01 4 -2.02 4 -1 4 C-0.67 2.68 -0.34 1.36 0 0 Z " fill="#3D3D3D" transform="translate(309,112)"/>
<path d="M0 0 C2.475 0.99 2.475 0.99 5 2 C3.8125 3.5625 3.8125 3.5625 2 5 C-0.6875 4.6875 -0.6875 4.6875 -3 4 C-2.01 2.68 -1.02 1.36 0 0 Z " fill="#DDDDDD" transform="translate(235,379)"/>
<path d="M0 0 C2.35953094 2.35953094 2.49141413 3.77895617 3 7 C1.35 7 -0.3 7 -2 7 C-1.34 4.69 -0.68 2.38 0 0 Z " fill="#CACACA" transform="translate(310,345)"/>
<path d="M0 0 C7.75 0.75 7.75 0.75 10 3 C8.72125 3.061875 7.4425 3.12375 6.125 3.1875 C5.40570313 3.22230469 4.68640625 3.25710937 3.9453125 3.29296875 C3.30335938 3.19628906 2.66140625 3.09960938 2 3 C1.34 2.01 0.68 1.02 0 0 Z " fill="#E5E5E5" transform="translate(212,188)"/>
<path d="M0 0 C0.33 1.32 0.66 2.64 1 4 C-1.31 4 -3.62 4 -6 4 C-2.25 0 -2.25 0 0 0 Z " fill="#2C2C2C" transform="translate(151,145)"/>
<path d="M0 0 C0.66 0.33 1.32 0.66 2 1 C2 1.66 2 2.32 2 3 C0.37373596 4.38232443 -1.2925002 5.71937515 -3 7 C-3.66 5.68 -4.32 4.36 -5 3 C-2.625 1.4375 -2.625 1.4375 0 0 Z " fill="#444444" transform="translate(328,91)"/>
<path d="M0 0 C0.99 0.33 1.98 0.66 3 1 C3 1.99 3 2.98 3 4 C1.02 4 -0.96 4 -3 4 C-3 3.34 -3 2.68 -3 2 C-2.01 1.34 -1.02 0.68 0 0 Z " fill="#EAEAEA" transform="translate(148,89)"/>
<path d="M0 0 C4.455 0.99 4.455 0.99 9 2 C8.34 2.66 7.68 3.32 7 4 C3.375 3.625 3.375 3.625 0 3 C0 2.01 0 1.02 0 0 Z " fill="#656565" transform="translate(296,418)"/>
<path d="M0 0 C0 0.66 0 1.32 0 2 C-2.25 3.125 -2.25 3.125 -5 4 C-7.3125 3.125 -7.3125 3.125 -9 2 C-3.375 0 -3.375 0 0 0 Z " fill="#2C2C2C" transform="translate(222,376)"/>
<path d="M0 0 C1.125 3.75 1.125 3.75 0 6 C-0.99 6 -1.98 6 -3 6 C-3.33 5.01 -3.66 4.02 -4 3 C-2.68 2.01 -1.36 1.02 0 0 Z " fill="#EAEAEA" transform="translate(244,315)"/>
<path d="M0 0 C1.32 0.66 2.64 1.32 4 2 C3.34 2.66 2.68 3.32 2 4 C-0.125 3.625 -0.125 3.625 -2 3 C-2.33 3.66 -2.66 4.32 -3 5 C-3 4.01 -3 3.02 -3 2 C-2.01 1.34 -1.02 0.68 0 0 Z " fill="#3D3D3D" transform="translate(303,106)"/>
<path d="M0 0 C3 3.875 3 3.875 3 5 C0.69 5 -1.62 5 -4 5 C-2.68 3.35 -1.36 1.7 0 0 Z " fill="#E2E2E2" transform="translate(248,88)"/>
<path d="M0 0 C2.31 0 4.62 0 7 0 C6.01 1.485 6.01 1.485 5 3 C3.35 2.67 1.7 2.34 0 2 C0 1.34 0 0.68 0 0 Z " fill="#E9E9E9" transform="translate(394,0)"/>
</svg>
